<?xml version="1.0" encoding="UTF-8" standalone="no"?>
<!-- Created with Inkscape (http://www.inkscape.org/) -->

<svg
   xmlns:dc="http://purl.org/dc/elements/1.1/"
   xmlns:cc="http://creativecommons.org/ns#"
   xmlns:rdf="http://www.w3.org/1999/02/22-rdf-syntax-ns#"
   xmlns:svg="http://www.w3.org/2000/svg"
   xmlns="http://www.w3.org/2000/svg"
   xmlns:sodipodi="http://sodipodi.sourceforge.net/DTD/sodipodi-0.dtd"
   xmlns:inkscape="http://www.inkscape.org/namespaces/inkscape"
   width="60"
   height="18"
   viewBox="0 0 15.875 4.7625001"
   version="1.1"
   id="svg805"
   inkscape:version="0.92.2 (5c3e80d, 2017-08-06)"
   sodipodi:docname="cloud-2.svg">
  <defs
     id="defs799" />
  <sodipodi:namedview
     id="base"
     pagecolor="#ffffff"
     bordercolor="#666666"
     borderopacity="1.0"
     inkscape:pageopacity="0.0"
     inkscape:pageshadow="2"
     inkscape:zoom="2.8"
     inkscape:cx="58.098314"
     inkscape:cy="-5.4780036"
     inkscape:document-units="mm"
     inkscape:current-layer="layer1"
     showgrid="false"
     units="px"
     inkscape:window-width="1920"
     inkscape:window-height="1013"
     inkscape:window-x="-9"
     inkscape:window-y="-9"
     inkscape:window-maximized="1" />
  <metadata
     id="metadata802">
    <rdf:RDF>
      <cc:Work
         rdf:about="">
        <dc:format>image/svg+xml</dc:format>
        <dc:type
           rdf:resource="http://purl.org/dc/dcmitype/StillImage" />
        <dc:title></dc:title>
      </cc:Work>
    </rdf:RDF>
  </metadata>
  <g
     inkscape:label="Layer 1"
     inkscape:groupmode="layer"
     id="layer1"
     transform="translate(0,-292.23748)">
    <g
       style="overflow:visible"
       transform="matrix(0.26458333,0,0,0.26458333,-14.022916,281.12498)"
       id="g3557">
      <g
         id="g3471">
        <rect
           style="fill:#dde4f0"
           id="rect3207"
           height="1"
           width="42"
           y="59"
           x="61" />
        <rect
           style="fill:#dde4f0"
           id="rect3209"
           height="1"
           width="1"
           y="58"
           x="103" />
        <rect
           style="fill:#dde4f0"
           id="rect3211"
           height="1"
           width="1"
           y="58"
           x="60" />
        <rect
           style="fill:#dde4f0"
           id="rect3213"
           height="1"
           width="1"
           y="57"
           x="104" />
        <rect
           style="fill:#dde4f0"
           id="rect3215"
           height="1"
           width="1"
           y="57"
           x="80" />
        <rect
           style="fill:#dde4f0"
           id="rect3217"
           height="1"
           width="1"
           y="57"
           x="66" />
        <rect
           style="fill:#dde4f0"
           id="rect3219"
           height="1"
           width="1"
           y="57"
           x="61" />
        <rect
           style="fill:#dde4f0"
           id="rect3221"
           height="1"
           width="1"
           y="56"
           x="98" />
        <rect
           style="fill:#dde4f0"
           id="rect3223"
           height="1"
           width="1"
           y="56"
           x="89" />
        <rect
           style="fill:#dde4f0"
           id="rect3225"
           height="1"
           width="1"
           y="56"
           x="81" />
        <rect
           style="fill:#dde4f0"
           id="rect3227"
           height="1"
           width="1"
           y="56"
           x="67" />
        <rect
           style="fill:#dde4f0"
           id="rect3229"
           height="1"
           width="1"
           y="56"
           x="65" />
        <rect
           style="fill:#dde4f0"
           id="rect3231"
           height="1"
           width="1"
           y="55"
           x="92" />
        <rect
           style="fill:#dde4f0"
           id="rect3233"
           height="1"
           width="1"
           y="55"
           x="88" />
        <rect
           style="fill:#dde4f0"
           id="rect3235"
           height="1"
           width="1"
           y="55"
           x="75" />
        <rect
           style="fill:#dde4f0"
           id="rect3237"
           height="1"
           width="1"
           y="55"
           x="68" />
        <rect
           style="fill:#dde4f0"
           id="rect3239"
           height="1"
           width="1"
           y="55"
           x="64" />
        <rect
           style="fill:#dde4f0"
           id="rect3241"
           height="1"
           width="1"
           y="54"
           x="99" />
        <rect
           style="fill:#dde4f0"
           id="rect3243"
           height="1"
           width="2"
           y="54"
           x="93" />
        <rect
           style="fill:#dde4f0"
           id="rect3245"
           height="1"
           width="4"
           y="54"
           x="84" />
        <rect
           style="fill:#dde4f0"
           id="rect3247"
           height="1"
           width="1"
           y="54"
           x="78" />
        <rect
           style="fill:#dde4f0"
           id="rect3249"
           height="1"
           width="1"
           y="54"
           x="74" />
        <rect
           style="fill:#dde4f0"
           id="rect3251"
           height="1"
           width="3"
           y="54"
           x="69" />
        <rect
           style="fill:#dde4f0"
           id="rect3253"
           height="1"
           width="1"
           y="53"
           x="100" />
        <rect
           style="fill:#dde4f0"
           id="rect3255"
           height="1"
           width="1"
           y="53"
           x="97" />
        <rect
           style="fill:#dde4f0"
           id="rect3257"
           height="1"
           width="1"
           y="53"
           x="83" />
        <rect
           style="fill:#dde4f0"
           id="rect3259"
           height="1"
           width="1"
           y="53"
           x="77" />
        <rect
           style="fill:#dde4f0"
           id="rect3261"
           height="1"
           width="1"
           y="53"
           x="72" />
        <rect
           style="fill:#dde4f0"
           id="rect3263"
           height="1"
           width="1"
           y="53"
           x="65" />
        <rect
           style="fill:#dde4f0"
           id="rect3265"
           height="1"
           width="1"
           y="52"
           x="96" />
        <rect
           style="fill:#dde4f0"
           id="rect3267"
           height="1"
           width="1"
           y="52"
           x="82" />
        <rect
           style="fill:#dde4f0"
           id="rect3269"
           height="1"
           width="1"
           y="52"
           x="78" />
        <rect
           style="fill:#dde4f0"
           id="rect3271"
           height="1"
           width="1"
           y="52"
           x="73" />
        <rect
           style="fill:#dde4f0"
           id="rect3273"
           height="1"
           width="1"
           y="52"
           x="66" />
        <rect
           style="fill:#dde4f0"
           id="rect3275"
           height="1"
           width="3"
           y="51"
           x="93" />
        <polygon
           style="fill:#dde4f0"
           id="polygon3277"
           points="91,50 89,50 89,51 90,51 90,52 91,52 91,53 92,53 92,51 91,51 " />
        <rect
           style="fill:#dde4f0"
           id="rect3279"
           height="1"
           width="2"
           y="51"
           x="67" />
        <rect
           style="fill:#dde4f0"
           id="rect3281"
           height="1"
           width="1"
           y="50"
           x="75" />
        <rect
           style="fill:#dde4f0"
           id="rect3283"
           height="1"
           width="1"
           y="49"
           x="86" />
        <rect
           style="fill:#dde4f0"
           id="rect3285"
           height="1"
           width="1"
           y="49"
           x="80" />
        <rect
           style="fill:#dde4f0"
           id="rect3287"
           height="1"
           width="1"
           y="48"
           x="81" />
        <polygon
           style="fill:#e1ebf7"
           id="polygon3289"
           points="81,57 81,56 82,56 82,55 80,55 80,56 78,56 78,58 74,58 74,59 103,59 103,58 104,58 104,57 103,57 103,56 100,56 100,57 99,57 99,58 98,58 98,57 93,57 93,58 92,58 92,55 90,55 90,57 83,57 83,58 80,58 80,57 " />
        <rect
           style="fill:#e1ebf7"
           id="rect3291"
           height="1"
           width="5"
           y="58"
           x="68" />
        <polygon
           style="fill:#e1ebf7"
           id="polygon3293"
           points="65,58 65,57 64,57 64,56 63,56 63,57 62,57 62,58 61,58 61,59 67,59 67,58 " />
        <rect
           style="fill:#e1ebf7"
           id="rect3295"
           height="1"
           width="1"
           y="57"
           x="73" />
        <rect
           style="fill:#e1ebf7"
           id="rect3297"
           height="1"
           width="1"
           y="56"
           x="104" />
        <rect
           style="fill:#e1ebf7"
           id="rect3299"
           height="1"
           width="1"
           y="56"
           x="72" />
        <rect
           style="fill:#e1ebf7"
           id="rect3301"
           height="1"
           width="1"
           y="56"
           x="66" />
        <rect
           style="fill:#e1ebf7"
           id="rect3303"
           height="1"
           width="1"
           y="55"
           x="67" />
        <rect
           style="fill:#e1ebf7"
           id="rect3305"
           height="1"
           width="1"
           y="54"
           x="92" />
        <polygon
           style="fill:#e1ebf7"
           id="polygon3307"
           points="90,55 90,54 89,54 89,53 87,53 87,54 88,54 88,55 " />
        <polygon
           style="fill:#e1ebf7"
           id="polygon3309"
           points="77,56 78,56 78,54 77,54 77,53 76,53 76,55 77,55 " />
        <rect
           style="fill:#e1ebf7"
           id="rect3311"
           height="1"
           width="1"
           y="54"
           x="68" />
        <rect
           style="fill:#e1ebf7"
           id="rect3313"
           height="1"
           width="1"
           y="54"
           x="64" />
        <polygon
           style="fill:#e1ebf7"
           id="polygon3315"
           points="73,51 71,51 71,52 72,52 72,53 73,53 " />
        <polygon
           style="fill:#e1ebf7"
           id="polygon3317"
           points="96,51 96,52 97,52 97,53 98,53 98,55 97,55 97,56 99,56 99,54 100,54 100,53 101,53 101,51 100,51 100,52 99,52 99,51 98,51 98,50 97,50 97,51 " />
        <polygon
           style="fill:#e1ebf7"
           id="polygon3319"
           points="84,54 85,54 85,52 86,52 86,51 85,51 85,50 82,50 82,51 83,51 83,53 84,53 " />
        <rect
           style="fill:#e1ebf7"
           id="rect3321"
           height="1"
           width="1"
           y="50"
           x="95" />
        <rect
           style="fill:#e1ebf7"
           id="rect3323"
           height="1"
           width="1"
           y="50"
           x="74" />
        <rect
           style="fill:#e1ebf7"
           id="rect3325"
           height="1"
           width="2"
           y="49"
           x="89" />
        <polygon
           style="fill:#e1ebf7"
           id="polygon3327"
           points="78,49 79,49 79,50 80,50 80,49 81,49 81,48 78,48 " />
        <rect
           style="fill:#e1ebf7"
           id="rect3329"
           height="1"
           width="3"
           y="49"
           x="75" />
        <rect
           style="fill:#e1ebf7"
           id="rect3331"
           height="1"
           width="1"
           y="48"
           x="85" />
        <polygon
           style="fill:#e1ebf7"
           id="polygon3333"
           points="93,47 92,47 92,46 90,46 90,45 87,45 87,46 86,46 86,47 87,47 87,48 88,48 88,47 91,47 91,48 92,48 92,50 91,50 91,51 93,51 93,49 94,49 94,48 93,48 " />
        <rect
           style="fill:#edf3f7"
           id="rect3335"
           height="1"
           width="1"
           y="58"
           x="73" />
        <rect
           style="fill:#edf3f7"
           id="rect3337"
           height="1"
           width="1"
           y="58"
           x="67" />
        <rect
           style="fill:#edf3f7"
           id="rect3339"
           height="1"
           width="1"
           y="57"
           x="92" />
        <rect
           style="fill:#edf3f7"
           id="rect3341"
           height="1"
           width="1"
           y="57"
           x="82" />
        <polygon
           style="fill:#edf3f7"
           id="polygon3343"
           points="77,57 77,55 76,55 76,58 78,58 78,57 " />
        <rect
           style="fill:#edf3f7"
           id="rect3345"
           height="1"
           width="1"
           y="57"
           x="74" />
        <rect
           style="fill:#edf3f7"
           id="rect3347"
           height="1"
           width="1"
           y="57"
           x="60" />
        <rect
           style="fill:#edf3f7"
           id="rect3349"
           height="1"
           width="1"
           y="56"
           x="103" />
        <rect
           style="fill:#edf3f7"
           id="rect3351"
           height="1"
           width="1"
           y="56"
           x="99" />
        <rect
           style="fill:#edf3f7"
           id="rect3353"
           height="1"
           width="3"
           y="56"
           x="93" />
        <rect
           style="fill:#edf3f7"
           id="rect3355"
           height="1"
           width="4"
           y="56"
           x="84" />
        <polygon
           style="fill:#edf3f7"
           id="polygon3357"
           points="72,57 72,56 70,56 70,57 68,57 68,58 73,58 73,57 " />
        <rect
           style="fill:#edf3f7"
           id="rect3359"
           height="1"
           width="2"
           y="56"
           x="61" />
        <rect
           style="fill:#edf3f7"
           id="rect3361"
           height="1"
           width="3"
           y="55"
           x="100" />
        <rect
           style="fill:#edf3f7"
           id="rect3363"
           height="1"
           width="1"
           y="55"
           x="89" />
        <rect
           style="fill:#edf3f7"
           id="rect3365"
           height="1"
           width="1"
           y="55"
           x="82" />
        <rect
           style="fill:#edf3f7"
           id="rect3367"
           height="1"
           width="1"
           y="55"
           x="79" />
        <rect
           style="fill:#edf3f7"
           id="rect3369"
           height="1"
           width="1"
           y="55"
           x="66" />
        <rect
           style="fill:#edf3f7"
           id="rect3371"
           height="1"
           width="2"
           y="54"
           x="90" />
        <rect
           style="fill:#edf3f7"
           id="rect3373"
           height="1"
           width="2"
           y="54"
           x="80" />
        <rect
           style="fill:#edf3f7"
           id="rect3375"
           height="1"
           width="1"
           y="54"
           x="67" />
        <rect
           style="fill:#edf3f7"
           id="rect3377"
           height="1"
           width="1"
           y="53"
           x="89" />
        <rect
           style="fill:#edf3f7"
           id="rect3379"
           height="1"
           width="1"
           y="53"
           x="86" />
        <rect
           style="fill:#edf3f7"
           id="rect3381"
           height="2"
           width="1"
           y="53"
           x="75" />
        <rect
           style="fill:#edf3f7"
           id="rect3383"
           height="1"
           width="3"
           y="53"
           x="68" />
        <rect
           style="fill:#edf3f7"
           id="rect3385"
           height="1"
           width="1"
           y="53"
           x="64" />
        <rect
           style="fill:#edf3f7"
           id="rect3387"
           height="1"
           width="2"
           y="52"
           x="87" />
        <rect
           style="fill:#edf3f7"
           id="rect3389"
           height="1"
           width="2"
           y="52"
           x="76" />
        <rect
           style="fill:#edf3f7"
           id="rect3391"
           height="1"
           width="1"
           y="52"
           x="65" />
        <rect
           style="fill:#edf3f7"
           id="rect3393"
           height="1"
           width="1"
           y="51"
           x="99" />
        <rect
           style="fill:#edf3f7"
           id="rect3395"
           height="1"
           width="1"
           y="51"
           x="92" />
        <rect
           style="fill:#edf3f7"
           id="rect3397"
           height="1"
           width="1"
           y="51"
           x="82" />
        <rect
           style="fill:#edf3f7"
           id="rect3399"
           height="1"
           width="1"
           y="51"
           x="70" />
        <rect
           style="fill:#edf3f7"
           id="rect3401"
           height="1"
           width="1"
           y="51"
           x="66" />
        <rect
           style="fill:#edf3f7"
           id="rect3403"
           height="1"
           width="1"
           y="50"
           x="98" />
        <polygon
           style="fill:#edf3f7"
           id="polygon3405"
           points="95,50 96,50 96,51 97,51 97,50 98,50 98,49 95,49 " />
        <rect
           style="fill:#edf3f7"
           id="rect3407"
           height="1"
           width="1"
           y="50"
           x="94" />
        <rect
           style="fill:#edf3f7"
           id="rect3409"
           height="1"
           width="2"
           y="50"
           x="80" />
        <rect
           style="fill:#edf3f7"
           id="rect3411"
           height="1"
           width="2"
           y="50"
           x="67" />
        <rect
           style="fill:#edf3f7"
           id="rect3413"
           height="1"
           width="1"
           y="49"
           x="91" />
        <rect
           style="fill:#edf3f7"
           id="rect3415"
           height="1"
           width="1"
           y="49"
           x="88" />
        <rect
           style="fill:#edf3f7"
           id="rect3417"
           height="1"
           width="1"
           y="49"
           x="78" />
        <rect
           style="fill:#edf3f7"
           id="rect3419"
           height="1"
           width="1"
           y="49"
           x="74" />
        <rect
           style="fill:#edf3f7"
           id="rect3421"
           height="1"
           width="2"
           y="48"
           x="89" />
        <rect
           style="fill:#edf3f7"
           id="rect3423"
           height="1"
           width="3"
           y="48"
           x="75" />
        <polygon
           style="fill:#edf3f7"
           id="polygon3425"
           points="84,46 84,47 83,47 83,48 86,48 86,49 87,49 87,47 86,47 86,46 " />
        <rect
           style="fill:#edf3f7"
           id="rect3427"
           height="1"
           width="4"
           y="47"
           x="78" />
        <rect
           style="fill:#edf3f7"
           id="rect3429"
           height="1"
           width="1"
           y="46"
           x="92" />
        <rect
           style="fill:#edf3f7"
           id="rect3431"
           height="1"
           width="2"
           y="45"
           x="90" />
        <rect
           style="fill:#edf3f7"
           id="rect3433"
           height="1"
           width="1"
           y="45"
           x="86" />
        <rect
           style="fill:#edf3f7"
           id="rect3435"
           height="1"
           width="3"
           y="44"
           x="87" />
        <rect
           style="fill:#fafdff"
           id="rect3437"
           height="1"
           width="1"
           y="57"
           x="98" />
        <rect
           style="fill:#fafdff"
           id="rect3439"
           height="1"
           width="1"
           y="57"
           x="81" />
        <rect
           style="fill:#fafdff"
           id="rect3441"
           height="1"
           width="1"
           y="57"
           x="67" />
        <rect
           style="fill:#fafdff"
           id="rect3443"
           height="1"
           width="1"
           y="57"
           x="65" />
        <rect
           style="fill:#fafdff"
           id="rect3445"
           height="1"
           width="1"
           y="56"
           x="92" />
        <rect
           style="fill:#fafdff"
           id="rect3447"
           height="1"
           width="1"
           y="56"
           x="88" />
        <rect
           style="fill:#fafdff"
           id="rect3449"
           height="1"
           width="1"
           y="56"
           x="77" />
        <rect
           style="fill:#fafdff"
           id="rect3451"
           height="1"
           width="1"
           y="56"
           x="64" />
        <polygon
           style="fill:#fafdff"
           id="polygon3453"
           points="61,55 60,55 60,57 61,57 61,56 64,56 64,55 63,55 63,54 61,54 " />
        <rect
           style="fill:#fafdff"
           id="rect3455"
           height="1"
           width="1"
           y="55"
           x="99" />
        <rect
           style="fill:#fafdff"
           id="rect3457"
           height="1"
           width="1"
           y="55"
           x="78" />
        <polygon
           style="fill:#fafdff"
           id="polygon3459"
           points="87,52 89,52 89,53 90,53 90,54 95,54 95,55 93,55 93,56 96,56 96,57 98,57 98,56 97,56 97,55 98,55 98,54 97,54 97,53 96,53 96,52 92,52 92,53 91,53 91,52 90,52 90,51 89,51 89,50 88,50 88,49 89,49 89,48 91,48 91,47 88,47 88,48 87,48 87,50 86,50 86,49 85,49 85,48 83,48 83,47 84,47 84,46 86,46 86,45 87,45 87,44 90,44 90,45 92,45 92,46 93,46 93,44 92,44 92,43 91,43 91,42 86,42 86,43 84,43 84,44 83,44 83,45 82,45 82,46 81,46 81,45 77,45 77,46 75,46 75,47 74,47 74,48 73,48 73,49 72,49 72,48 68,48 68,49 66,49 66,50 65,50 65,52 66,52 66,51 67,51 67,50 69,50 69,52 67,52 67,53 66,53 66,54 65,54 65,56 66,56 66,55 67,55 67,54 68,54 68,53 71,53 71,54 72,54 72,52 70,52 70,51 73,51 73,52 74,52 74,53 73,53 73,54 72,54 72,55 69,55 69,56 68,56 68,57 70,57 70,56 73,56 73,57 75,57 75,58 76,58 76,56 75,56 75,55 74,55 74,54 75,54 75,53 76,53 76,52 79,52 79,53 78,53 78,54 79,54 79,55 80,55 80,54 82,54 82,55 83,55 83,56 82,56 82,57 84,57 84,56 88,56 88,55 84,55 84,54 83,54 83,53 82,53 82,51 80,51 80,50 76,50 76,51 74,51 74,49 75,49 75,48 78,48 78,47 82,47 82,49 81,49 81,50 85,50 85,51 86,51 86,52 85,52 85,54 86,54 86,53 87,53 " />
        <polygon
           style="fill:#fafdff"
           id="polygon3461"
           points="103,56 105,56 105,55 104,55 104,54 103,54 103,53 101,53 101,54 100,54 100,55 103,55 " />
        <rect
           style="fill:#fafdff"
           id="rect3463"
           height="1"
           width="1"
           y="52"
           x="64" />
        <polygon
           style="fill:#fafdff"
           id="polygon3465"
           points="98,49 98,50 99,50 99,51 100,51 100,49 99,49 99,48 98,48 98,47 95,47 95,48 94,48 94,49 93,49 93,51 94,51 94,50 95,50 95,49 " />
        <rect
           style="fill:#fafdff"
           id="rect3467"
           height="1"
           width="1"
           y="48"
           x="91" />
        <rect
           style="fill:#fafdff"
           id="rect3469"
           height="2"
           width="1"
           y="46"
           x="93" />
      </g>
      <g
         id="g3531">
        <rect
           style="fill:#dde4f0"
           id="rect3473"
           height="1"
           width="10"
           y="59"
           x="102" />
        <rect
           style="fill:#dde4f0"
           id="rect3475"
           height="1"
           width="1"
           y="58"
           x="112" />
        <rect
           style="fill:#dde4f0"
           id="rect3477"
           height="1"
           width="1"
           y="58"
           x="101" />
        <rect
           style="fill:#dde4f0"
           id="rect3479"
           height="1"
           width="1"
           y="57"
           x="111" />
        <rect
           style="fill:#dde4f0"
           id="rect3481"
           height="1"
           width="1"
           y="57"
           x="106" />
        <rect
           style="fill:#dde4f0"
           id="rect3483"
           height="1"
           width="1"
           y="57"
           x="102" />
        <rect
           style="fill:#dde4f0"
           id="rect3485"
           height="1"
           width="1"
           y="56"
           x="110" />
        <rect
           style="fill:#dde4f0"
           id="rect3487"
           height="1"
           width="1"
           y="56"
           x="108" />
        <rect
           style="fill:#dde4f0"
           id="rect3489"
           height="1"
           width="2"
           y="56"
           x="103" />
        <rect
           style="fill:#dde4f0"
           id="rect3491"
           height="1"
           width="1"
           y="55"
           x="106" />
        <rect
           style="fill:#dde4f0"
           id="rect3493"
           height="1"
           width="1"
           y="54"
           x="105" />
        <polygon
           style="fill:#e1ebf7"
           id="polygon3495"
           points="108,58 108,57 107,57 107,59 109,59 109,58 " />
        <rect
           style="fill:#e1ebf7"
           id="rect3497"
           height="1"
           width="1"
           y="58"
           x="105" />
        <rect
           style="fill:#e1ebf7"
           id="rect3499"
           height="1"
           width="1"
           y="54"
           x="106" />
        <rect
           style="fill:#edf3f7"
           id="rect3501"
           height="1"
           width="2"
           y="58"
           x="109" />
        <rect
           style="fill:#edf3f7"
           id="rect3503"
           height="1"
           width="2"
           y="58"
           x="103" />
        <rect
           style="fill:#edf3f7"
           id="rect3505"
           height="1"
           width="1"
           y="57"
           x="112" />
        <rect
           style="fill:#edf3f7"
           id="rect3507"
           height="1"
           width="1"
           y="57"
           x="101" />
        <rect
           style="fill:#edf3f7"
           id="rect3509"
           height="1"
           width="1"
           y="56"
           x="111" />
        <rect
           style="fill:#edf3f7"
           id="rect3511"
           height="1"
           width="1"
           y="56"
           x="107" />
        <rect
           style="fill:#edf3f7"
           id="rect3513"
           height="1"
           width="1"
           y="56"
           x="102" />
        <rect
           style="fill:#edf3f7"
           id="rect3515"
           height="1"
           width="1"
           y="55"
           x="103" />
        <rect
           style="fill:#edf3f7"
           id="rect3517"
           height="1"
           width="1"
           y="54"
           x="107" />
        <rect
           style="fill:#edf3f7"
           id="rect3519"
           height="1"
           width="2"
           y="53"
           x="105" />
        <rect
           style="fill:#fafdff"
           id="rect3521"
           height="1"
           width="1"
           y="58"
           x="111" />
        <rect
           style="fill:#fafdff"
           id="rect3523"
           height="1"
           width="1"
           y="58"
           x="106" />
        <rect
           style="fill:#fafdff"
           id="rect3525"
           height="1"
           width="1"
           y="58"
           x="102" />
        <rect
           style="fill:#fafdff"
           id="rect3527"
           height="1"
           width="1"
           y="56"
           x="112" />
        <polygon
           style="fill:#fafdff"
           id="polygon3529"
           points="101,55 101,57 102,57 102,56 103,56 103,55 104,55 104,56 105,56 105,57 103,57 103,58 106,58 106,57 107,57 107,56 106,56 106,55 105,55 105,53 107,53 107,54 108,54 108,55 107,55 107,56 109,56 109,57 108,57 108,58 111,58 111,57 110,57 110,56 112,56 112,55 110,55 110,54 109,54 109,53 108,53 108,52 107,52 107,51 105,51 105,52 104,52 104,54 102,54 102,55 " />
      </g>
      <g
         id="g3555">
        <polygon
           style="fill:#dde4f0"
           id="polygon3533"
           points="58,58 58,59 55,59 55,58 53,58 53,59 54,59 54,60 62,60 62,59 59,59 59,58 " />
        <rect
           style="fill:#dde4f0"
           id="rect3535"
           height="1"
           width="1"
           y="58"
           x="62" />
        <rect
           style="fill:#dde4f0"
           id="rect3537"
           height="1"
           width="2"
           y="57"
           x="56" />
        <rect
           style="fill:#e1ebf7"
           id="rect3539"
           height="1"
           width="1"
           y="58"
           x="61" />
        <rect
           style="fill:#edf3f7"
           id="rect3541"
           height="1"
           width="1"
           y="58"
           x="60" />
        <rect
           style="fill:#edf3f7"
           id="rect3543"
           height="1"
           width="1"
           y="57"
           x="61" />
        <rect
           style="fill:#edf3f7"
           id="rect3545"
           height="1"
           width="2"
           y="57"
           x="54" />
        <rect
           style="fill:#fafdff"
           id="rect3547"
           height="1"
           width="3"
           y="58"
           x="55" />
        <rect
           style="fill:#fafdff"
           id="rect3549"
           height="1"
           width="1"
           y="57"
           x="62" />
        <rect
           style="fill:#fafdff"
           id="rect3551"
           height="1"
           width="1"
           y="57"
           x="53" />
        <polygon
           style="fill:#fafdff"
           id="polygon3553"
           points="55,55 55,56 54,56 54,57 58,57 58,58 59,58 59,59 60,59 60,58 61,58 61,57 62,57 62,56 60,56 60,57 59,57 59,56 58,56 58,55 " />
      </g>
    </g>
  </g>
</svg>
