<?xml version="1.0" encoding="UTF-8" standalone="no"?>
<!-- Created with Inkscape (http://www.inkscape.org/) -->

<svg
   xmlns:dc="http://purl.org/dc/elements/1.1/"
   xmlns:cc="http://creativecommons.org/ns#"
   xmlns:rdf="http://www.w3.org/1999/02/22-rdf-syntax-ns#"
   xmlns:svg="http://www.w3.org/2000/svg"
   xmlns="http://www.w3.org/2000/svg"
   xmlns:sodipodi="http://sodipodi.sourceforge.net/DTD/sodipodi-0.dtd"
   xmlns:inkscape="http://www.inkscape.org/namespaces/inkscape"
   width="45"
   height="18"
   viewBox="0 0 11.90625 4.7625001"
   version="1.1"
   id="svg582"
   inkscape:version="0.92.2 (5c3e80d, 2017-08-06)"
   sodipodi:docname="cloud-4.svg">
  <defs
     id="defs576" />
  <sodipodi:namedview
     id="base"
     pagecolor="#ffffff"
     bordercolor="#666666"
     borderopacity="1.0"
     inkscape:pageopacity="0.0"
     inkscape:pageshadow="2"
     inkscape:zoom="22.4"
     inkscape:cx="26.014391"
     inkscape:cy="10.303301"
     inkscape:document-units="mm"
     inkscape:current-layer="layer1"
     showgrid="false"
     units="px"
     inkscape:pagecheckerboard="true"
     inkscape:window-width="1920"
     inkscape:window-height="1013"
     inkscape:window-x="-9"
     inkscape:window-y="-9"
     inkscape:window-maximized="1" />
  <metadata
     id="metadata579">
    <rdf:RDF>
      <cc:Work
         rdf:about="">
        <dc:format>image/svg+xml</dc:format>
        <dc:type
           rdf:resource="http://purl.org/dc/dcmitype/StillImage" />
        <dc:title></dc:title>
      </cc:Work>
    </rdf:RDF>
  </metadata>
  <g
     inkscape:label="Layer 1"
     inkscape:groupmode="layer"
     id="layer1"
     transform="translate(0,-292.23748)">
    <g
       style="overflow:visible"
       transform="matrix(0.26458333,0,0,0.26458333,-51.329166,281.91873)"
       id="g3985">
      <rect
         style="fill:#dde4f0"
         id="rect3721"
         height="1"
         width="42"
         y="56"
         x="195" />
      <rect
         style="fill:#dde4f0"
         id="rect3723"
         height="1"
         width="1"
         y="55"
         x="237" />
      <rect
         style="fill:#dde4f0"
         id="rect3725"
         height="1"
         width="1"
         y="55"
         x="194" />
      <rect
         style="fill:#dde4f0"
         id="rect3727"
         height="1"
         width="1"
         y="54"
         x="238" />
      <rect
         style="fill:#dde4f0"
         id="rect3729"
         height="1"
         width="1"
         y="54"
         x="214" />
      <rect
         style="fill:#dde4f0"
         id="rect3731"
         height="1"
         width="1"
         y="54"
         x="200" />
      <rect
         style="fill:#dde4f0"
         id="rect3733"
         height="1"
         width="1"
         y="54"
         x="195" />
      <rect
         style="fill:#dde4f0"
         id="rect3735"
         height="1"
         width="1"
         y="53"
         x="232" />
      <rect
         style="fill:#dde4f0"
         id="rect3737"
         height="1"
         width="1"
         y="53"
         x="223" />
      <rect
         style="fill:#dde4f0"
         id="rect3739"
         height="1"
         width="1"
         y="53"
         x="215" />
      <rect
         style="fill:#dde4f0"
         id="rect3741"
         height="1"
         width="1"
         y="53"
         x="201" />
      <rect
         style="fill:#dde4f0"
         id="rect3743"
         height="1"
         width="1"
         y="53"
         x="199" />
      <rect
         style="fill:#dde4f0"
         id="rect3745"
         height="1"
         width="1"
         y="52"
         x="226" />
      <rect
         style="fill:#dde4f0"
         id="rect3747"
         height="1"
         width="1"
         y="52"
         x="222" />
      <rect
         style="fill:#dde4f0"
         id="rect3749"
         height="1"
         width="1"
         y="52"
         x="209" />
      <rect
         style="fill:#dde4f0"
         id="rect3751"
         height="1"
         width="1"
         y="52"
         x="202" />
      <rect
         style="fill:#dde4f0"
         id="rect3753"
         height="1"
         width="1"
         y="52"
         x="198" />
      <rect
         style="fill:#dde4f0"
         id="rect3755"
         height="1"
         width="1"
         y="51"
         x="233" />
      <rect
         style="fill:#dde4f0"
         id="rect3757"
         height="1"
         width="2"
         y="51"
         x="227" />
      <rect
         style="fill:#dde4f0"
         id="rect3759"
         height="1"
         width="4"
         y="51"
         x="218" />
      <rect
         style="fill:#dde4f0"
         id="rect3761"
         height="1"
         width="1"
         y="51"
         x="212" />
      <rect
         style="fill:#dde4f0"
         id="rect3763"
         height="1"
         width="1"
         y="51"
         x="208" />
      <rect
         style="fill:#dde4f0"
         id="rect3765"
         height="1"
         width="3"
         y="51"
         x="203" />
      <rect
         style="fill:#dde4f0"
         id="rect3767"
         height="1"
         width="1"
         y="50"
         x="234" />
      <rect
         style="fill:#dde4f0"
         id="rect3769"
         height="1"
         width="1"
         y="50"
         x="231" />
      <rect
         style="fill:#dde4f0"
         id="rect3771"
         height="1"
         width="1"
         y="50"
         x="217" />
      <rect
         style="fill:#dde4f0"
         id="rect3773"
         height="1"
         width="1"
         y="50"
         x="211" />
      <rect
         style="fill:#dde4f0"
         id="rect3775"
         height="1"
         width="1"
         y="50"
         x="206" />
      <rect
         style="fill:#dde4f0"
         id="rect3777"
         height="1"
         width="1"
         y="50"
         x="199" />
      <rect
         style="fill:#dde4f0"
         id="rect3779"
         height="1"
         width="1"
         y="49"
         x="230" />
      <rect
         style="fill:#dde4f0"
         id="rect3781"
         height="1"
         width="1"
         y="49"
         x="216" />
      <rect
         style="fill:#dde4f0"
         id="rect3783"
         height="1"
         width="1"
         y="49"
         x="212" />
      <rect
         style="fill:#dde4f0"
         id="rect3785"
         height="1"
         width="1"
         y="49"
         x="207" />
      <rect
         style="fill:#dde4f0"
         id="rect3787"
         height="1"
         width="1"
         y="49"
         x="200" />
      <rect
         style="fill:#dde4f0"
         id="rect3789"
         height="1"
         width="3"
         y="48"
         x="227" />
      <polygon
         style="fill:#dde4f0"
         id="polygon3791"
         points="225,47 223,47 223,48 224,48 224,49 225,49 225,50 226,50 226,48 225,48 " />
      <rect
         style="fill:#dde4f0"
         id="rect3793"
         height="1"
         width="2"
         y="48"
         x="201" />
      <rect
         style="fill:#dde4f0"
         id="rect3795"
         height="1"
         width="1"
         y="47"
         x="209" />
      <rect
         style="fill:#dde4f0"
         id="rect3797"
         height="1"
         width="1"
         y="46"
         x="220" />
      <rect
         style="fill:#dde4f0"
         id="rect3799"
         height="1"
         width="1"
         y="46"
         x="214" />
      <rect
         style="fill:#dde4f0"
         id="rect3801"
         height="1"
         width="1"
         y="45"
         x="215" />
      <polygon
         style="fill:#e1ebf7"
         id="polygon3803"
         points="215,54 215,53 216,53 216,52 214,52 214,53 212,53 212,55 208,55 208,56 237,56 237,55 238,55 238,54 237,54 237,53 234,53 234,54 233,54 233,55 232,55 232,54 227,54 227,55 226,55 226,52 224,52 224,54 217,54 217,55 214,55 214,54 " />
      <rect
         style="fill:#e1ebf7"
         id="rect3805"
         height="1"
         width="5"
         y="55"
         x="202" />
      <polygon
         style="fill:#e1ebf7"
         id="polygon3807"
         points="199,55 199,54 198,54 198,53 197,53 197,54 196,54 196,55 195,55 195,56 201,56 201,55 " />
      <rect
         style="fill:#e1ebf7"
         id="rect3809"
         height="1"
         width="1"
         y="54"
         x="207" />
      <rect
         style="fill:#e1ebf7"
         id="rect3811"
         height="1"
         width="1"
         y="53"
         x="238" />
      <rect
         style="fill:#e1ebf7"
         id="rect3813"
         height="1"
         width="1"
         y="53"
         x="206" />
      <rect
         style="fill:#e1ebf7"
         id="rect3815"
         height="1"
         width="1"
         y="53"
         x="200" />
      <rect
         style="fill:#e1ebf7"
         id="rect3817"
         height="1"
         width="1"
         y="52"
         x="201" />
      <rect
         style="fill:#e1ebf7"
         id="rect3819"
         height="1"
         width="1"
         y="51"
         x="226" />
      <polygon
         style="fill:#e1ebf7"
         id="polygon3821"
         points="224,52 224,51 223,51 223,50 221,50 221,51 222,51 222,52 " />
      <polygon
         style="fill:#e1ebf7"
         id="polygon3823"
         points="211,53 212,53 212,51 211,51 211,50 210,50 210,52 211,52 " />
      <rect
         style="fill:#e1ebf7"
         id="rect3825"
         height="1"
         width="1"
         y="51"
         x="202" />
      <rect
         style="fill:#e1ebf7"
         id="rect3827"
         height="1"
         width="1"
         y="51"
         x="198" />
      <polygon
         style="fill:#e1ebf7"
         id="polygon3829"
         points="207,48 205,48 205,49 206,49 206,50 207,50 " />
      <polygon
         style="fill:#e1ebf7"
         id="polygon3831"
         points="230,48 230,49 231,49 231,50 232,50 232,52 231,52 231,53 233,53 233,51 234,51 234,50 235,50 235,48 234,48 234,49 233,49 233,48 232,48 232,47 231,47 231,48 " />
      <polygon
         style="fill:#e1ebf7"
         id="polygon3833"
         points="218,51 219,51 219,49 220,49 220,48 219,48 219,47 216,47 216,48 217,48 217,50 218,50 " />
      <rect
         style="fill:#e1ebf7"
         id="rect3835"
         height="1"
         width="1"
         y="47"
         x="229" />
      <rect
         style="fill:#e1ebf7"
         id="rect3837"
         height="1"
         width="1"
         y="47"
         x="208" />
      <rect
         style="fill:#e1ebf7"
         id="rect3839"
         height="1"
         width="2"
         y="46"
         x="223" />
      <polygon
         style="fill:#e1ebf7"
         id="polygon3841"
         points="212,46 213,46 213,47 214,47 214,46 215,46 215,45 212,45 " />
      <rect
         style="fill:#e1ebf7"
         id="rect3843"
         height="1"
         width="3"
         y="46"
         x="209" />
      <rect
         style="fill:#e1ebf7"
         id="rect3845"
         height="1"
         width="1"
         y="45"
         x="219" />
      <polygon
         style="fill:#e1ebf7"
         id="polygon3847"
         points="227,44 226,44 226,43 224,43 224,42 221,42 221,43 220,43 220,44 221,44 221,45 222,45 222,44 225,44 225,45 226,45 226,47 225,47 225,48 227,48 227,46 228,46 228,45 227,45 " />
      <rect
         style="fill:#edf3f7"
         id="rect3849"
         height="1"
         width="1"
         y="55"
         x="207" />
      <rect
         style="fill:#edf3f7"
         id="rect3851"
         height="1"
         width="1"
         y="55"
         x="201" />
      <rect
         style="fill:#edf3f7"
         id="rect3853"
         height="1"
         width="1"
         y="54"
         x="226" />
      <rect
         style="fill:#edf3f7"
         id="rect3855"
         height="1"
         width="1"
         y="54"
         x="216" />
      <polygon
         style="fill:#edf3f7"
         id="polygon3857"
         points="211,54 211,52 210,52 210,55 212,55 212,54 " />
      <rect
         style="fill:#edf3f7"
         id="rect3859"
         height="1"
         width="1"
         y="54"
         x="208" />
      <rect
         style="fill:#edf3f7"
         id="rect3861"
         height="1"
         width="1"
         y="54"
         x="194" />
      <rect
         style="fill:#edf3f7"
         id="rect3863"
         height="1"
         width="1"
         y="53"
         x="237" />
      <rect
         style="fill:#edf3f7"
         id="rect3865"
         height="1"
         width="1"
         y="53"
         x="233" />
      <rect
         style="fill:#edf3f7"
         id="rect3867"
         height="1"
         width="3"
         y="53"
         x="227" />
      <rect
         style="fill:#edf3f7"
         id="rect3869"
         height="1"
         width="4"
         y="53"
         x="218" />
      <polygon
         style="fill:#edf3f7"
         id="polygon3871"
         points="206,54 206,53 204,53 204,54 202,54 202,55 207,55 207,54 " />
      <rect
         style="fill:#edf3f7"
         id="rect3873"
         height="1"
         width="2"
         y="53"
         x="195" />
      <rect
         style="fill:#edf3f7"
         id="rect3875"
         height="1"
         width="3"
         y="52"
         x="234" />
      <rect
         style="fill:#edf3f7"
         id="rect3877"
         height="1"
         width="1"
         y="52"
         x="223" />
      <rect
         style="fill:#edf3f7"
         id="rect3879"
         height="1"
         width="1"
         y="52"
         x="216" />
      <rect
         style="fill:#edf3f7"
         id="rect3881"
         height="1"
         width="1"
         y="52"
         x="213" />
      <rect
         style="fill:#edf3f7"
         id="rect3883"
         height="1"
         width="1"
         y="52"
         x="200" />
      <rect
         style="fill:#edf3f7"
         id="rect3885"
         height="1"
         width="2"
         y="51"
         x="224" />
      <rect
         style="fill:#edf3f7"
         id="rect3887"
         height="1"
         width="2"
         y="51"
         x="214" />
      <rect
         style="fill:#edf3f7"
         id="rect3889"
         height="1"
         width="1"
         y="51"
         x="201" />
      <rect
         style="fill:#edf3f7"
         id="rect3891"
         height="1"
         width="1"
         y="50"
         x="223" />
      <rect
         style="fill:#edf3f7"
         id="rect3893"
         height="1"
         width="1"
         y="50"
         x="220" />
      <rect
         style="fill:#edf3f7"
         id="rect3895"
         height="2"
         width="1"
         y="50"
         x="209" />
      <rect
         style="fill:#edf3f7"
         id="rect3897"
         height="1"
         width="3"
         y="50"
         x="202" />
      <rect
         style="fill:#edf3f7"
         id="rect3899"
         height="1"
         width="1"
         y="50"
         x="198" />
      <rect
         style="fill:#edf3f7"
         id="rect3901"
         height="1"
         width="2"
         y="49"
         x="221" />
      <rect
         style="fill:#edf3f7"
         id="rect3903"
         height="1"
         width="2"
         y="49"
         x="210" />
      <rect
         style="fill:#edf3f7"
         id="rect3905"
         height="1"
         width="1"
         y="49"
         x="199" />
      <rect
         style="fill:#edf3f7"
         id="rect3907"
         height="1"
         width="1"
         y="48"
         x="233" />
      <rect
         style="fill:#edf3f7"
         id="rect3909"
         height="1"
         width="1"
         y="48"
         x="226" />
      <rect
         style="fill:#edf3f7"
         id="rect3911"
         height="1"
         width="1"
         y="48"
         x="216" />
      <rect
         style="fill:#edf3f7"
         id="rect3913"
         height="1"
         width="1"
         y="48"
         x="204" />
      <rect
         style="fill:#edf3f7"
         id="rect3915"
         height="1"
         width="1"
         y="48"
         x="200" />
      <rect
         style="fill:#edf3f7"
         id="rect3917"
         height="1"
         width="1"
         y="47"
         x="232" />
      <polygon
         style="fill:#edf3f7"
         id="polygon3919"
         points="229,47 230,47 230,48 231,48 231,47 232,47 232,46 229,46 " />
      <rect
         style="fill:#edf3f7"
         id="rect3921"
         height="1"
         width="1"
         y="47"
         x="228" />
      <rect
         style="fill:#edf3f7"
         id="rect3923"
         height="1"
         width="2"
         y="47"
         x="214" />
      <rect
         style="fill:#edf3f7"
         id="rect3925"
         height="1"
         width="2"
         y="47"
         x="201" />
      <rect
         style="fill:#edf3f7"
         id="rect3927"
         height="1"
         width="1"
         y="46"
         x="225" />
      <rect
         style="fill:#edf3f7"
         id="rect3929"
         height="1"
         width="1"
         y="46"
         x="222" />
      <rect
         style="fill:#edf3f7"
         id="rect3931"
         height="1"
         width="1"
         y="46"
         x="212" />
      <rect
         style="fill:#edf3f7"
         id="rect3933"
         height="1"
         width="1"
         y="46"
         x="208" />
      <rect
         style="fill:#edf3f7"
         id="rect3935"
         height="1"
         width="2"
         y="45"
         x="223" />
      <rect
         style="fill:#edf3f7"
         id="rect3937"
         height="1"
         width="3"
         y="45"
         x="209" />
      <polygon
         style="fill:#edf3f7"
         id="polygon3939"
         points="218,43 218,44 217,44 217,45 220,45 220,46 221,46 221,44 220,44 220,43 " />
      <rect
         style="fill:#edf3f7"
         id="rect3941"
         height="1"
         width="4"
         y="44"
         x="212" />
      <rect
         style="fill:#edf3f7"
         id="rect3943"
         height="1"
         width="1"
         y="43"
         x="226" />
      <rect
         style="fill:#edf3f7"
         id="rect3945"
         height="1"
         width="2"
         y="42"
         x="224" />
      <rect
         style="fill:#edf3f7"
         id="rect3947"
         height="1"
         width="1"
         y="42"
         x="220" />
      <rect
         style="fill:#edf3f7"
         id="rect3949"
         height="1"
         width="3"
         y="41"
         x="221" />
      <rect
         style="fill:#fafdff"
         id="rect3951"
         height="1"
         width="1"
         y="54"
         x="232" />
      <rect
         style="fill:#fafdff"
         id="rect3953"
         height="1"
         width="1"
         y="54"
         x="215" />
      <rect
         style="fill:#fafdff"
         id="rect3955"
         height="1"
         width="1"
         y="54"
         x="201" />
      <rect
         style="fill:#fafdff"
         id="rect3957"
         height="1"
         width="1"
         y="54"
         x="199" />
      <rect
         style="fill:#fafdff"
         id="rect3959"
         height="1"
         width="1"
         y="53"
         x="226" />
      <rect
         style="fill:#fafdff"
         id="rect3961"
         height="1"
         width="1"
         y="53"
         x="222" />
      <rect
         style="fill:#fafdff"
         id="rect3963"
         height="1"
         width="1"
         y="53"
         x="211" />
      <rect
         style="fill:#fafdff"
         id="rect3965"
         height="1"
         width="1"
         y="53"
         x="198" />
      <polygon
         style="fill:#fafdff"
         id="polygon3967"
         points="195,52 194,52 194,54 195,54 195,53 198,53 198,52 197,52 197,51 195,51 " />
      <rect
         style="fill:#fafdff"
         id="rect3969"
         height="1"
         width="1"
         y="52"
         x="233" />
      <rect
         style="fill:#fafdff"
         id="rect3971"
         height="1"
         width="1"
         y="52"
         x="212" />
      <polygon
         style="fill:#fafdff"
         id="polygon3973"
         points="221,49 223,49 223,50 224,50 224,51 229,51 229,52 227,52 227,53 230,53 230,54 232,54 232,53 231,53 231,52 232,52 232,51 231,51 231,50 230,50 230,49 226,49 226,50 225,50 225,49 224,49 224,48 223,48 223,47 222,47 222,46 223,46 223,45 225,45 225,44 222,44 222,45 221,45 221,47 220,47 220,46 219,46 219,45 217,45 217,44 218,44 218,43 220,43 220,42 221,42 221,41 224,41 224,42 226,42 226,43 227,43 227,41 226,41 226,40 225,40 225,39 220,39 220,40 218,40 218,41 217,41 217,42 216,42 216,43 215,43 215,42 211,42 211,43 209,43 209,44 208,44 208,45 207,45 207,46 206,46 206,45 202,45 202,46 200,46 200,47 199,47 199,49 200,49 200,48 201,48 201,47 203,47 203,49 201,49 201,50 200,50 200,51 199,51 199,53 200,53 200,52 201,52 201,51 202,51 202,50 205,50 205,51 206,51 206,49 204,49 204,48 207,48 207,49 208,49 208,50 207,50 207,51 206,51 206,52 203,52 203,53 202,53 202,54 204,54 204,53 207,53 207,54 209,54 209,55 210,55 210,53 209,53 209,52 208,52 208,51 209,51 209,50 210,50 210,49 213,49 213,50 212,50 212,51 213,51 213,52 214,52 214,51 216,51 216,52 217,52 217,53 216,53 216,54 218,54 218,53 222,53 222,52 218,52 218,51 217,51 217,50 216,50 216,48 214,48 214,47 210,47 210,48 208,48 208,46 209,46 209,45 212,45 212,44 216,44 216,46 215,46 215,47 219,47 219,48 220,48 220,49 219,49 219,51 220,51 220,50 221,50 " />
      <polygon
         style="fill:#fafdff"
         id="polygon3975"
         points="237,53 239,53 239,52 238,52 238,51 237,51 237,50 235,50 235,51 234,51 234,52 237,52 " />
      <rect
         style="fill:#fafdff"
         id="rect3977"
         height="1"
         width="1"
         y="49"
         x="198" />
      <polygon
         style="fill:#fafdff"
         id="polygon3979"
         points="232,46 232,47 233,47 233,48 234,48 234,46 233,46 233,45 232,45 232,44 229,44 229,45 228,45 228,46 227,46 227,48 228,48 228,47 229,47 229,46 " />
      <rect
         style="fill:#fafdff"
         id="rect3981"
         height="1"
         width="1"
         y="45"
         x="225" />
      <rect
         style="fill:#fafdff"
         id="rect3983"
         height="2"
         width="1"
         y="43"
         x="227" />
    </g>
  </g>
</svg>
