<?xml version="1.0" encoding="UTF-8" standalone="no"?>
<!-- Created with Inkscape (http://www.inkscape.org/) -->

<svg
   xmlns:dc="http://purl.org/dc/elements/1.1/"
   xmlns:cc="http://creativecommons.org/ns#"
   xmlns:rdf="http://www.w3.org/1999/02/22-rdf-syntax-ns#"
   xmlns:svg="http://www.w3.org/2000/svg"
   xmlns="http://www.w3.org/2000/svg"
   xmlns:sodipodi="http://sodipodi.sourceforge.net/DTD/sodipodi-0.dtd"
   xmlns:inkscape="http://www.inkscape.org/namespaces/inkscape"
   width="36"
   height="12"
   viewBox="0 0 9.5249998 3.1750001"
   version="1.1"
   id="svg1258"
   inkscape:version="0.92.2 (5c3e80d, 2017-08-06)"
   sodipodi:docname="cloud-3.svg">
  <defs
     id="defs1252" />
  <sodipodi:namedview
     id="base"
     pagecolor="#ffffff"
     bordercolor="#666666"
     borderopacity="1.0"
     inkscape:pageopacity="0.0"
     inkscape:pageshadow="2"
     inkscape:zoom="22.4"
     inkscape:cx="10.694651"
     inkscape:cy="5.2483702"
     inkscape:document-units="mm"
     inkscape:current-layer="layer1"
     showgrid="false"
     units="px"
     inkscape:window-width="1920"
     inkscape:window-height="1013"
     inkscape:window-x="-9"
     inkscape:window-y="-9"
     inkscape:window-maximized="1" />
  <metadata
     id="metadata1255">
    <rdf:RDF>
      <cc:Work
         rdf:about="">
        <dc:format>image/svg+xml</dc:format>
        <dc:type
           rdf:resource="http://purl.org/dc/dcmitype/StillImage" />
        <dc:title></dc:title>
      </cc:Work>
    </rdf:RDF>
  </metadata>
  <g
     inkscape:label="Layer 1"
     inkscape:groupmode="layer"
     id="layer1"
     transform="translate(0,-293.82498)">
    <g
       style="overflow:visible"
       transform="matrix(0.26458333,0,0,0.26458333,-35.454166,286.94581)"
       id="g3719">
      <g
         id="g3617">
        <rect
           style="fill:#dde4f0"
           id="rect3559"
           height="1"
           width="10"
           y="37"
           x="159" />
        <rect
           style="fill:#dde4f0"
           id="rect3561"
           height="1"
           width="1"
           y="36"
           x="169" />
        <rect
           style="fill:#dde4f0"
           id="rect3563"
           height="1"
           width="1"
           y="36"
           x="158" />
        <rect
           style="fill:#dde4f0"
           id="rect3565"
           height="1"
           width="1"
           y="35"
           x="168" />
        <rect
           style="fill:#dde4f0"
           id="rect3567"
           height="1"
           width="1"
           y="35"
           x="163" />
        <rect
           style="fill:#dde4f0"
           id="rect3569"
           height="1"
           width="1"
           y="35"
           x="159" />
        <rect
           style="fill:#dde4f0"
           id="rect3571"
           height="1"
           width="1"
           y="34"
           x="167" />
        <rect
           style="fill:#dde4f0"
           id="rect3573"
           height="1"
           width="1"
           y="34"
           x="165" />
        <rect
           style="fill:#dde4f0"
           id="rect3575"
           height="1"
           width="2"
           y="34"
           x="160" />
        <rect
           style="fill:#dde4f0"
           id="rect3577"
           height="1"
           width="1"
           y="33"
           x="163" />
        <rect
           style="fill:#dde4f0"
           id="rect3579"
           height="1"
           width="1"
           y="32"
           x="162" />
        <polygon
           style="fill:#e1ebf7"
           id="polygon3581"
           points="165,36 165,35 164,35 164,37 166,37 166,36 " />
        <rect
           style="fill:#e1ebf7"
           id="rect3583"
           height="1"
           width="1"
           y="36"
           x="162" />
        <rect
           style="fill:#e1ebf7"
           id="rect3585"
           height="1"
           width="1"
           y="32"
           x="163" />
        <rect
           style="fill:#edf3f7"
           id="rect3587"
           height="1"
           width="2"
           y="36"
           x="166" />
        <rect
           style="fill:#edf3f7"
           id="rect3589"
           height="1"
           width="2"
           y="36"
           x="160" />
        <rect
           style="fill:#edf3f7"
           id="rect3591"
           height="1"
           width="1"
           y="35"
           x="169" />
        <rect
           style="fill:#edf3f7"
           id="rect3593"
           height="1"
           width="1"
           y="35"
           x="158" />
        <rect
           style="fill:#edf3f7"
           id="rect3595"
           height="1"
           width="1"
           y="34"
           x="168" />
        <rect
           style="fill:#edf3f7"
           id="rect3597"
           height="1"
           width="1"
           y="34"
           x="164" />
        <rect
           style="fill:#edf3f7"
           id="rect3599"
           height="1"
           width="1"
           y="34"
           x="159" />
        <rect
           style="fill:#edf3f7"
           id="rect3601"
           height="1"
           width="1"
           y="33"
           x="160" />
        <rect
           style="fill:#edf3f7"
           id="rect3603"
           height="1"
           width="1"
           y="32"
           x="164" />
        <rect
           style="fill:#edf3f7"
           id="rect3605"
           height="1"
           width="2"
           y="31"
           x="162" />
        <rect
           style="fill:#fafdff"
           id="rect3607"
           height="1"
           width="1"
           y="36"
           x="168" />
        <rect
           style="fill:#fafdff"
           id="rect3609"
           height="1"
           width="1"
           y="36"
           x="163" />
        <rect
           style="fill:#fafdff"
           id="rect3611"
           height="1"
           width="1"
           y="36"
           x="159" />
        <rect
           style="fill:#fafdff"
           id="rect3613"
           height="1"
           width="1"
           y="34"
           x="169" />
        <polygon
           style="fill:#fafdff"
           id="polygon3615"
           points="158,33 158,35 159,35 159,34 160,34 160,33 161,33 161,34 162,34 162,35 160,35 160,36 163,36 163,35 164,35 164,34 163,34 163,33 162,33 162,31 164,31 164,32 165,32 165,33 164,33 164,34 166,34 166,35 165,35 165,36 168,36 168,35 167,35 167,34 169,34 169,33 167,33 167,32 166,32 166,31 165,31 165,30 164,30 164,29 162,29 162,30 161,30 161,32 159,32 159,33 " />
      </g>
      <g
         id="g3641">
        <polygon
           style="fill:#dde4f0"
           id="polygon3619"
           points="139,36 139,37 142,37 142,36 144,36 144,37 143,37 143,38 135,38 135,37 138,37 138,36 " />
        <rect
           style="fill:#dde4f0"
           id="rect3621"
           height="1"
           width="1"
           y="36"
           x="134" />
        <rect
           style="fill:#dde4f0"
           id="rect3623"
           height="1"
           width="2"
           y="35"
           x="139" />
        <rect
           style="fill:#e1ebf7"
           id="rect3625"
           height="1"
           width="1"
           y="36"
           x="135" />
        <rect
           style="fill:#edf3f7"
           id="rect3627"
           height="1"
           width="1"
           y="36"
           x="136" />
        <rect
           style="fill:#edf3f7"
           id="rect3629"
           height="1"
           width="1"
           y="35"
           x="135" />
        <rect
           style="fill:#edf3f7"
           id="rect3631"
           height="1"
           width="2"
           y="35"
           x="141" />
        <rect
           style="fill:#fafdff"
           id="rect3633"
           height="1"
           width="3"
           y="36"
           x="139" />
        <rect
           style="fill:#fafdff"
           id="rect3635"
           height="1"
           width="1"
           y="35"
           x="134" />
        <rect
           style="fill:#fafdff"
           id="rect3637"
           height="1"
           width="1"
           y="35"
           x="143" />
        <polygon
           style="fill:#fafdff"
           id="polygon3639"
           points="142,33 142,34 143,34 143,35 139,35 139,36 138,36 138,37 137,37 137,36 136,36 136,35 135,35 135,34 137,34 137,35 138,35 138,34 139,34 139,33 " />
      </g>
      <g
         id="g3717">
        <rect
           style="fill:#dde4f0"
           id="rect3643"
           height="1"
           width="1"
           y="36"
           x="160" />
        <polygon
           style="fill:#dde4f0"
           id="polygon3645"
           points="158,37 151,37 151,36 150,36 150,37 140,37 140,38 160,38 160,37 159,37 159,36 158,36 " />
        <rect
           style="fill:#dde4f0"
           id="rect3647"
           height="1"
           width="1"
           y="36"
           x="139" />
        <rect
           style="fill:#dde4f0"
           id="rect3649"
           height="1"
           width="1"
           y="35"
           x="157" />
        <rect
           style="fill:#dde4f0"
           id="rect3651"
           height="1"
           width="1"
           y="34"
           x="156" />
        <rect
           style="fill:#dde4f0"
           id="rect3653"
           height="1"
           width="1"
           y="34"
           x="151" />
        <rect
           style="fill:#dde4f0"
           id="rect3655"
           height="2"
           width="1"
           y="34"
           x="142" />
        <rect
           style="fill:#dde4f0"
           id="rect3657"
           height="1"
           width="1"
           y="33"
           x="152" />
        <rect
           style="fill:#dde4f0"
           id="rect3659"
           height="1"
           width="1"
           y="33"
           x="149" />
        <rect
           style="fill:#dde4f0"
           id="rect3661"
           height="1"
           width="1"
           y="33"
           x="143" />
        <rect
           style="fill:#dde4f0"
           id="rect3663"
           height="1"
           width="1"
           y="32"
           x="148" />
        <rect
           style="fill:#dde4f0"
           id="rect3665"
           height="1"
           width="1"
           y="32"
           x="144" />
        <rect
           style="fill:#dde4f0"
           id="rect3667"
           height="1"
           width="2"
           y="31"
           x="146" />
        <rect
           style="fill:#dde4f0"
           id="rect3669"
           height="1"
           width="1"
           y="30"
           x="153" />
        <rect
           style="fill:#dde4f0"
           id="rect3671"
           height="1"
           width="1"
           y="30"
           x="149" />
        <rect
           style="fill:#dde4f0"
           id="rect3673"
           height="1"
           width="3"
           y="29"
           x="150" />
        <rect
           style="fill:#e1ebf7"
           id="rect3675"
           height="1"
           width="1"
           y="36"
           x="159" />
        <rect
           style="fill:#e1ebf7"
           id="rect3677"
           height="1"
           width="4"
           y="36"
           x="153" />
        <rect
           style="fill:#e1ebf7"
           id="rect3679"
           height="1"
           width="5"
           y="36"
           x="143" />
        <rect
           style="fill:#e1ebf7"
           id="rect3681"
           height="1"
           width="1"
           y="35"
           x="158" />
        <polygon
           style="fill:#e1ebf7"
           id="polygon3683"
           points="140,37 142,37 142,35 141,35 141,36 140,36 " />
        <polygon
           style="fill:#e1ebf7"
           id="polygon3685"
           points="151,36 151,34 152,34 152,33 150,33 150,36 " />
        <rect
           style="fill:#e1ebf7"
           id="rect3687"
           height="1"
           width="1"
           y="31"
           x="148" />
        <rect
           style="fill:#edf3f7"
           id="rect3689"
           height="1"
           width="2"
           y="36"
           x="151" />
        <rect
           style="fill:#edf3f7"
           id="rect3691"
           height="1"
           width="1"
           y="36"
           x="142" />
        <polygon
           style="fill:#edf3f7"
           id="polygon3693"
           points="156,32 156,33 155,33 155,34 157,34 157,35 159,35 159,36 161,36 161,35 160,35 160,34 159,34 159,33 158,33 158,32 " />
        <rect
           style="fill:#edf3f7"
           id="rect3695"
           height="1"
           width="2"
           y="35"
           x="153" />
        <polygon
           style="fill:#edf3f7"
           id="polygon3697"
           points="148,34 145,34 145,35 143,35 143,36 148,36 148,37 150,37 150,36 149,36 149,35 148,35 " />
        <rect
           style="fill:#edf3f7"
           id="rect3699"
           height="1"
           width="1"
           y="35"
           x="140" />
        <polygon
           style="fill:#edf3f7"
           id="polygon3701"
           points="143,33 144,33 144,32 145,32 145,31 143,31 143,32 142,32 142,33 141,33 141,35 142,35 142,34 143,34 " />
        <rect
           style="fill:#edf3f7"
           id="rect3703"
           height="1"
           width="1"
           y="33"
           x="153" />
        <rect
           style="fill:#edf3f7"
           id="rect3705"
           height="1"
           width="4"
           y="32"
           x="149" />
        <polygon
           style="fill:#edf3f7"
           id="polygon3707"
           points="150,30 150,29 152,29 152,28 149,28 149,29 148,29 148,30 147,30 147,31 149,31 149,30 " />
        <rect
           style="fill:#fafdff"
           id="rect3709"
           height="1"
           width="1"
           y="36"
           x="157" />
        <rect
           style="fill:#fafdff"
           id="rect3711"
           height="1"
           width="1"
           y="34"
           x="160" />
        <polygon
           style="fill:#fafdff"
           id="polygon3713"
           points="141,33 140,33 140,34 139,34 139,36 140,36 140,35 141,35 " />
        <polygon
           style="fill:#fafdff"
           id="polygon3715"
           points="156,32 158,32 158,33 159,33 159,34 160,34 160,32 159,32 159,31 158,31 158,30 156,30 156,31 155,31 155,28 154,28 154,27 153,27 153,26 148,26 148,27 147,27 147,29 146,29 146,30 145,30 145,29 142,29 142,30 141,30 141,33 142,33 142,32 143,32 143,31 145,31 145,33 144,33 144,34 143,34 143,35 145,35 145,34 148,34 148,35 149,35 149,36 150,36 150,34 149,34 149,33 148,33 148,32 146,32 146,31 147,31 147,30 148,30 148,29 149,29 149,28 152,28 152,29 153,29 153,30 154,30 154,31 153,31 153,30 150,30 150,31 149,31 149,32 153,32 153,33 154,33 154,34 152,34 152,35 151,35 151,36 153,36 153,35 155,35 155,36 157,36 157,35 156,35 156,34 155,34 155,33 156,33 " />
      </g>
    </g>
  </g>
</svg>
