<?xml version="1.0" encoding="UTF-8" standalone="no"?>
<!-- Created with Inkscape (http://www.inkscape.org/) -->

<svg
   xmlns:dc="http://purl.org/dc/elements/1.1/"
   xmlns:cc="http://creativecommons.org/ns#"
   xmlns:rdf="http://www.w3.org/1999/02/22-rdf-syntax-ns#"
   xmlns:svg="http://www.w3.org/2000/svg"
   xmlns="http://www.w3.org/2000/svg"
   xmlns:sodipodi="http://sodipodi.sourceforge.net/DTD/sodipodi-0.dtd"
   xmlns:inkscape="http://www.inkscape.org/namespaces/inkscape"
   width="16"
   height="16"
   viewBox="0 0 4.2333332 4.2333332"
   version="1.1"
   id="svg9437"
   inkscape:version="0.92.2 (5c3e80d, 2017-08-06)"
   sodipodi:docname="grass-right.svg">
  <defs
     id="defs9431" />
  <sodipodi:namedview
     id="base"
     pagecolor="#ffffff"
     bordercolor="#666666"
     borderopacity="1.0"
     inkscape:pageopacity="0.0"
     inkscape:pageshadow="2"
     inkscape:zoom="2.8"
     inkscape:cx="33.210934"
     inkscape:cy="40.283987"
     inkscape:document-units="mm"
     inkscape:current-layer="layer1"
     showgrid="false"
     inkscape:window-width="1920"
     inkscape:window-height="1013"
     inkscape:window-x="-9"
     inkscape:window-y="-9"
     inkscape:window-maximized="1"
     units="px" />
  <metadata
     id="metadata9434">
    <rdf:RDF>
      <cc:Work
         rdf:about="">
        <dc:format>image/svg+xml</dc:format>
        <dc:type
           rdf:resource="http://purl.org/dc/dcmitype/StillImage" />
        <dc:title></dc:title>
      </cc:Work>
    </rdf:RDF>
  </metadata>
  <g
     inkscape:label="Layer 1"
     inkscape:groupmode="layer"
     id="layer1"
     transform="translate(0,-292.76667)">
    <g
       style="overflow:visible"
       id="g1725"
       transform="matrix(0.26458333,0,0,0.26458333,-8.4666667,250.43332)">
      <rect
         x="45"
         y="175"
         width="1"
         height="1"
         id="rect1601"
         style="fill:#3b2130" />
      <rect
         x="38"
         y="175"
         width="1"
         height="1"
         id="rect1603"
         style="fill:#3b2130" />
      <rect
         x="34"
         y="175"
         width="1"
         height="1"
         id="rect1605"
         style="fill:#3b2130" />
      <rect
         x="32"
         y="175"
         width="2"
         height="1"
         id="rect1607"
         style="fill:#231e2b" />
      <rect
         x="42"
         y="174"
         width="1"
         height="1"
         id="rect1609"
         style="fill:#522b29" />
      <rect
         x="33"
         y="174"
         width="1"
         height="1"
         id="rect1611"
         style="fill:#3b2130" />
      <rect
         x="32"
         y="174"
         width="1"
         height="1"
         id="rect1613"
         style="fill:#522b29" />
      <rect
         x="46"
         y="172"
         width="1"
         height="2"
         id="rect1615"
         style="fill:#3b2130" />
      <rect
         x="37"
         y="173"
         width="1"
         height="1"
         id="rect1617"
         style="fill:#522b29" />
      <rect
         x="33"
         y="173"
         width="1"
         height="1"
         id="rect1619"
         style="fill:#522b29" />
      <polygon
         points="44,173 43,173 43,175 44,175 44,174 45,174 45,172 44,172 "
         id="polygon1621"
         style="fill:#3b2130" />
      <rect
         x="43"
         y="172"
         width="1"
         height="1"
         id="rect1623"
         style="fill:#522b29" />
      <polygon
         points="41,174 41,173 42,173 42,172 40,172 40,174 "
         id="polygon1625"
         style="fill:#3b2130" />
      <rect
         x="39"
         y="172"
         width="1"
         height="1"
         id="rect1627"
         style="fill:#522b29" />
      <rect
         x="36"
         y="172"
         width="1"
         height="1"
         id="rect1629"
         style="fill:#522b29" />
      <polygon
         points="36,172 35,172 35,174 36,174 36,175 37,175 37,173 36,173 "
         id="polygon1631"
         style="fill:#3b2130" />
      <polygon
         points="43,170 43,172 45,172 45,171 44,171 44,170 "
         id="polygon1633"
         style="fill:#231e2b" />
      <polygon
         points="33,169 32,169 32,171 33,171 33,172 34,172 34,170 36,170 36,171 37,171 37,172 38,172 38,171 40,171 40,170 41,170 41,169 40,169 40,167 41,167 41,165 40,165 40,166 38,166 38,167 39,167 39,170 38,170 38,169 37,169 37,168 35,168 35,169 34,169 34,168 33,168 "
         id="polygon1635"
         style="fill:#30394a" />
      <polygon
         points="37,173 38,173 38,174 37,174 37,175 36,175 36,174 35,174 35,172 37,172 37,171 36,171 36,170 34,170 34,172 33,172 33,171 32,171 32,174 33,174 33,173 34,173 34,175 35,175 35,176 38,176 38,175 39,175 39,176 45,176 45,175 46,175 46,176 48,176 48,170 47,170 47,171 46,171 46,172 47,172 47,174 46,174 46,172 45,172 45,174 44,174 44,175 42,175 42,174 43,174 43,172 42,172 42,173 41,173 41,174 40,174 40,173 39,173 39,172 42,172 42,171 41,171 41,170 40,170 40,171 38,171 38,172 37,172 "
         id="polygon1637"
         style="fill:#231e2b" />
      <polygon
         points="42,168 41,168 41,167 40,167 40,169 41,169 41,170 42,170 "
         id="polygon1639"
         style="fill:#367e5d" />
      <rect
         x="47"
         y="168"
         width="1"
         height="2"
         id="rect1641"
         style="fill:#32595c" />
      <polygon
         points="42,170 41,170 41,171 42,171 42,172 43,172 43,170 44,170 44,171 45,171 45,172 46,172 46,171 47,171 47,168 46,168 46,169 45,169 45,166 44,166 44,169 43,169 43,168 42,168 "
         id="polygon1643"
         style="fill:#30394a" />
      <polygon
         points="33,168 34,168 34,166 33,166 33,164 32,164 32,169 33,169 "
         id="polygon1645"
         style="fill:#32595c" />
      <rect
         x="47"
         y="167"
         width="1"
         height="1"
         id="rect1647"
         style="fill:#659756" />
      <polygon
         points="46,169 46,168 47,168 47,167 45,167 45,169 "
         id="polygon1649"
         style="fill:#367e5d" />
      <polygon
         points="43,169 44,169 44,167 43,167 43,165 41,165 41,167 42,167 42,168 43,168 "
         id="polygon1651"
         style="fill:#32595c" />
      <rect
         x="41"
         y="167"
         width="1"
         height="1"
         id="rect1653"
         style="fill:#659756" />
      <rect
         x="47"
         y="166"
         width="1"
         height="1"
         id="rect1655"
         style="fill:#367e5d" />
      <rect
         x="45"
         y="166"
         width="2"
         height="1"
         id="rect1657"
         style="fill:#659756" />
      <polygon
         points="39,167 38,167 38,166 37,166 37,167 36,167 36,168 37,168 37,169 38,169 38,170 39,170 "
         id="polygon1659"
         style="fill:#32595c" />
      <polygon
         points="35,169 35,168 36,168 36,167 37,167 37,164 36,164 36,165 35,165 35,167 34,167 34,169 "
         id="polygon1661"
         style="fill:#367e5d" />
      <rect
         x="34"
         y="166"
         width="1"
         height="1"
         id="rect1663"
         style="fill:#659756" />
      <rect
         x="46"
         y="165"
         width="1"
         height="1"
         id="rect1665"
         style="fill:#367e5d" />
      <rect
         x="45"
         y="164"
         width="1"
         height="2"
         id="rect1667"
         style="fill:#32595c" />
      <rect
         x="39"
         y="165"
         width="1"
         height="1"
         id="rect1669"
         style="fill:#367e5d" />
      <rect
         x="37"
         y="165"
         width="1"
         height="1"
         id="rect1671"
         style="fill:#30394a" />
      <polygon
         points="36,164 34,164 34,166 35,166 35,165 36,165 "
         id="polygon1673"
         style="fill:#32595c" />
      <rect
         x="33"
         y="165"
         width="1"
         height="1"
         id="rect1675"
         style="fill:#30394a" />
      <rect
         x="46"
         y="164"
         width="1"
         height="1"
         id="rect1677"
         style="fill:#30394a" />
      <polygon
         points="44,167 44,166 45,166 45,164 43,164 43,167 "
         id="polygon1679"
         style="fill:#659756" />
      <rect
         x="41"
         y="163"
         width="1"
         height="2"
         id="rect1681"
         style="fill:#30394a" />
      <rect
         x="40"
         y="164"
         width="1"
         height="1"
         id="rect1683"
         style="fill:#367e5d" />
      <rect
         x="38"
         y="164"
         width="1"
         height="2"
         id="rect1685"
         style="fill:#32595c" />
      <polygon
         points="34,164 35,164 35,162 33,162 33,163 32,163 32,164 33,164 33,165 34,165 "
         id="polygon1687"
         style="fill:#659756" />
      <rect
         x="46"
         y="163"
         width="1"
         height="1"
         id="rect1689"
         style="fill:#367e5d" />
      <rect
         x="44"
         y="163"
         width="1"
         height="1"
         id="rect1691"
         style="fill:#32595c" />
      <polygon
         points="42,163 42,162 40,162 40,163 39,163 39,165 40,165 40,164 41,164 41,163 "
         id="polygon1693"
         style="fill:#659756" />
      <rect
         x="38"
         y="163"
         width="1"
         height="1"
         id="rect1695"
         style="fill:#30394a" />
      <polygon
         points="37,164 37,165 38,165 38,163 36,163 36,164 "
         id="polygon1697"
         style="fill:#659756" />
      <polygon
         points="37,162 36,162 36,161 33,161 33,162 35,162 35,164 36,164 36,163 37,163 "
         id="polygon1699"
         style="fill:#367e5d" />
      <polygon
         points="42,162 42,165 43,165 43,164 44,164 44,163 45,163 45,162 "
         id="polygon1701"
         style="fill:#367e5d" />
      <rect
         x="37"
         y="162"
         width="1"
         height="1"
         id="rect1703"
         style="fill:#32595c" />
      <rect
         x="32"
         y="162"
         width="1"
         height="1"
         id="rect1705"
         style="fill:#32595c" />
      <polygon
         points="47,166 48,166 48,162 47,162 47,161 46,161 46,162 45,162 45,164 46,164 46,163 47,163 "
         id="polygon1707"
         style="fill:#659756" />
      <rect
         x="45"
         y="161"
         width="1"
         height="1"
         id="rect1709"
         style="fill:#367e5d" />
      <polygon
         points="42,161 42,162 45,162 45,161 46,161 46,160 43,160 43,161 "
         id="polygon1711"
         style="fill:#659756" />
      <polygon
         points="41,161 41,160 40,160 40,161 39,161 39,162 38,162 38,163 40,163 40,162 42,162 42,161 "
         id="polygon1713"
         style="fill:#367e5d" />
      <polygon
         points="36,161 36,162 39,162 39,161 40,161 40,160 37,160 37,161 "
         id="polygon1715"
         style="fill:#659756" />
      <polygon
         points="36,160 32,160 32,162 33,162 33,161 36,161 "
         id="polygon1717"
         style="fill:#659756" />
      <rect
         x="42"
         y="160"
         width="1"
         height="1"
         id="rect1719"
         style="fill:#367e5d" />
      <rect
         x="41"
         y="160"
         width="1"
         height="1"
         id="rect1721"
         style="fill:#659756" />
      <rect
         x="36"
         y="160"
         width="1"
         height="1"
         id="rect1723"
         style="fill:#367e5d" />
    </g>
  </g>
</svg>
