<?xml version="1.0" encoding="UTF-8" standalone="no"?>
<!-- Created with Inkscape (http://www.inkscape.org/) -->

<svg
   xmlns:dc="http://purl.org/dc/elements/1.1/"
   xmlns:cc="http://creativecommons.org/ns#"
   xmlns:rdf="http://www.w3.org/1999/02/22-rdf-syntax-ns#"
   xmlns:svg="http://www.w3.org/2000/svg"
   xmlns="http://www.w3.org/2000/svg"
   xmlns:sodipodi="http://sodipodi.sourceforge.net/DTD/sodipodi-0.dtd"
   xmlns:inkscape="http://www.inkscape.org/namespaces/inkscape"
   width="16"
   height="16"
   viewBox="0 0 4.2333332 4.2333332"
   version="1.1"
   id="svg9646"
   inkscape:version="0.92.2 (5c3e80d, 2017-08-06)"
   sodipodi:docname="grass-left.svg">
  <defs
     id="defs9640" />
  <sodipodi:namedview
     id="base"
     pagecolor="#ffffff"
     bordercolor="#666666"
     borderopacity="1.0"
     inkscape:pageopacity="0.0"
     inkscape:pageshadow="2"
     inkscape:zoom="15.839192"
     inkscape:cx="18.953789"
     inkscape:cy="25.385604"
     inkscape:document-units="mm"
     inkscape:current-layer="layer1"
     showgrid="false"
     inkscape:window-width="1920"
     inkscape:window-height="1013"
     inkscape:window-x="-9"
     inkscape:window-y="-9"
     inkscape:window-maximized="1"
     units="px" />
  <metadata
     id="metadata9643">
    <rdf:RDF>
      <cc:Work
         rdf:about="">
        <dc:format>image/svg+xml</dc:format>
        <dc:type
           rdf:resource="http://purl.org/dc/dcmitype/StillImage" />
        <dc:title></dc:title>
      </cc:Work>
    </rdf:RDF>
  </metadata>
  <g
     inkscape:label="Layer 1"
     inkscape:groupmode="layer"
     id="layer1"
     transform="translate(0,-292.76667)">
    <g
       style="overflow:visible"
       id="g2915"
       transform="matrix(0.26458333,0,0,0.26458333,-55.033333,254.66667)">
      <rect
         x="221"
         y="159"
         width="1"
         height="1"
         id="rect2783"
         style="fill:#3b2130" />
      <rect
         x="214"
         y="159"
         width="1"
         height="1"
         id="rect2785"
         style="fill:#3b2130" />
      <rect
         x="210"
         y="159"
         width="1"
         height="1"
         id="rect2787"
         style="fill:#3b2130" />
      <rect
         x="208"
         y="159"
         width="2"
         height="1"
         id="rect2789"
         style="fill:#231e2b" />
      <polygon
         points="212,154 210,154 210,156 209,156 209,155 208,155 208,158 209,158 209,157 210,157 210,159 211,159 211,160 214,160 214,159 215,159 215,160 221,160 221,159 222,159 222,160 224,160 224,158 222,158 222,156 221,156 221,158 220,158 220,159 218,159 218,158 219,158 219,156 218,156 218,157 217,157 217,158 216,158 216,157 215,157 215,156 218,156 218,155 217,155 217,154 216,154 216,155 214,155 214,156 213,156 213,157 214,157 214,158 213,158 213,159 212,159 212,158 211,158 211,156 213,156 213,155 212,155 "
         id="polygon2791"
         style="fill:#231e2b" />
      <rect
         x="218"
         y="158"
         width="1"
         height="1"
         id="rect2793"
         style="fill:#522b29" />
      <rect
         x="209"
         y="158"
         width="1"
         height="1"
         id="rect2795"
         style="fill:#3b2130" />
      <rect
         x="208"
         y="158"
         width="1"
         height="1"
         id="rect2797"
         style="fill:#522b29" />
      <rect
         x="213"
         y="157"
         width="1"
         height="1"
         id="rect2799"
         style="fill:#522b29" />
      <rect
         x="209"
         y="157"
         width="1"
         height="1"
         id="rect2801"
         style="fill:#522b29" />
      <rect
         x="223"
         y="156"
         width="1"
         height="1"
         id="rect2803"
         style="fill:#522b29" />
      <polygon
         points="224,158 224,157 223,157 223,156 222,156 222,158 "
         id="polygon2805"
         style="fill:#3b2130" />
      <polygon
         points="220,156 220,157 219,157 219,159 220,159 220,158 221,158 221,156 "
         id="polygon2807"
         style="fill:#3b2130" />
      <rect
         x="219"
         y="156"
         width="1"
         height="1"
         id="rect2809"
         style="fill:#522b29" />
      <polygon
         points="217,157 218,157 218,156 216,156 216,158 217,158 "
         id="polygon2811"
         style="fill:#3b2130" />
      <rect
         x="215"
         y="156"
         width="1"
         height="1"
         id="rect2813"
         style="fill:#522b29" />
      <rect
         x="212"
         y="156"
         width="1"
         height="1"
         id="rect2815"
         style="fill:#522b29" />
      <polygon
         points="212,157 212,156 211,156 211,158 212,158 212,159 213,159 213,157 "
         id="polygon2817"
         style="fill:#3b2130" />
      <polygon
         points="220,154 219,154 219,156 221,156 221,155 220,155 "
         id="polygon2819"
         style="fill:#231e2b" />
      <polygon
         points="224,156 224,154 223,154 223,155 222,155 222,156 "
         id="polygon2821"
         style="fill:#231e2b" />
      <rect
         x="208"
         y="154"
         width="1"
         height="1"
         id="rect2823"
         style="fill:#32595c" />
      <polygon
         points="214,151 215,151 215,154 214,154 214,153 213,153 213,152 211,152 211,153 210,153 210,152 209,152 209,156 210,156 210,154 212,154 212,155 213,155 213,156 214,156 214,155 216,155 216,154 217,154 217,153 216,153 216,151 217,151 217,149 216,149 216,150 214,150 "
         id="polygon2825"
         style="fill:#30394a" />
      <rect
         x="208"
         y="152"
         width="1"
         height="2"
         id="rect2827"
         style="fill:#367e5d" />
      <polygon
         points="217,154 217,155 218,155 218,156 219,156 219,154 220,154 220,155 221,155 221,156 222,156 222,155 223,155 223,154 224,154 224,151 223,151 223,152 222,152 222,153 221,153 221,150 220,150 220,153 219,153 219,152 218,152 218,154 "
         id="polygon2829"
         style="fill:#30394a" />
      <polygon
         points="222,152 223,152 223,151 221,151 221,153 222,153 "
         id="polygon2831"
         style="fill:#367e5d" />
      <rect
         x="217"
         y="151"
         width="1"
         height="1"
         id="rect2833"
         style="fill:#659756" />
      <polygon
         points="217,152 217,151 216,151 216,153 217,153 217,154 218,154 218,152 "
         id="polygon2835"
         style="fill:#367e5d" />
      <rect
         x="209"
         y="150"
         width="1"
         height="2"
         id="rect2837"
         style="fill:#32595c" />
      <polygon
         points="211,148 211,146 210,146 210,145 209,145 209,146 208,146 208,152 209,152 209,149 210,149 210,148 "
         id="polygon2839"
         style="fill:#659756" />
      <rect
         x="223"
         y="150"
         width="1"
         height="1"
         id="rect2841"
         style="fill:#367e5d" />
      <rect
         x="221"
         y="150"
         width="2"
         height="1"
         id="rect2843"
         style="fill:#659756" />
      <polygon
         points="219,151 219,149 217,149 217,151 218,151 218,152 219,152 219,153 220,153 220,151 "
         id="polygon2845"
         style="fill:#32595c" />
      <polygon
         points="213,152 213,153 214,153 214,154 215,154 215,151 214,151 214,150 213,150 213,151 212,151 212,152 "
         id="polygon2847"
         style="fill:#32595c" />
      <polygon
         points="212,149 211,149 211,151 210,151 210,153 211,153 211,152 212,152 212,151 213,151 213,148 212,148 "
         id="polygon2849"
         style="fill:#367e5d" />
      <rect
         x="210"
         y="150"
         width="1"
         height="1"
         id="rect2851"
         style="fill:#659756" />
      <rect
         x="223"
         y="149"
         width="1"
         height="1"
         id="rect2853"
         style="fill:#659756" />
      <rect
         x="222"
         y="149"
         width="1"
         height="1"
         id="rect2855"
         style="fill:#367e5d" />
      <rect
         x="215"
         y="149"
         width="1"
         height="1"
         id="rect2857"
         style="fill:#367e5d" />
      <rect
         x="213"
         y="149"
         width="1"
         height="1"
         id="rect2859"
         style="fill:#30394a" />
      <polygon
         points="212,148 210,148 210,150 211,150 211,149 212,149 "
         id="polygon2861"
         style="fill:#32595c" />
      <rect
         x="209"
         y="149"
         width="1"
         height="1"
         id="rect2863"
         style="fill:#30394a" />
      <rect
         x="221"
         y="148"
         width="1"
         height="2"
         id="rect2865"
         style="fill:#32595c" />
      <polygon
         points="220,151 220,150 221,150 221,148 219,148 219,151 "
         id="polygon2867"
         style="fill:#659756" />
      <rect
         x="216"
         y="148"
         width="1"
         height="1"
         id="rect2869"
         style="fill:#367e5d" />
      <polygon
         points="215,147 215,149 216,149 216,148 217,148 217,147 218,147 218,146 216,146 216,147 "
         id="polygon2871"
         style="fill:#659756" />
      <rect
         x="214"
         y="148"
         width="1"
         height="2"
         id="rect2873"
         style="fill:#32595c" />
      <polygon
         points="224,149 224,147 223,147 223,148 222,148 222,149 "
         id="polygon2875"
         style="fill:#30394a" />
      <rect
         x="222"
         y="147"
         width="1"
         height="1"
         id="rect2877"
         style="fill:#367e5d" />
      <polygon
         points="223,147 223,146 221,146 221,148 222,148 222,147 "
         id="polygon2879"
         style="fill:#659756" />
      <rect
         x="220"
         y="147"
         width="1"
         height="1"
         id="rect2881"
         style="fill:#32595c" />
      <rect
         x="217"
         y="147"
         width="1"
         height="2"
         id="rect2883"
         style="fill:#30394a" />
      <rect
         x="214"
         y="147"
         width="1"
         height="1"
         id="rect2885"
         style="fill:#30394a" />
      <polygon
         points="213,149 214,149 214,147 212,147 212,148 213,148 "
         id="polygon2887"
         style="fill:#659756" />
      <polygon
         points="212,148 212,147 213,147 213,146 212,146 212,145 210,145 210,146 211,146 211,148 "
         id="polygon2889"
         style="fill:#367e5d" />
      <rect
         x="223"
         y="146"
         width="1"
         height="1"
         id="rect2891"
         style="fill:#32595c" />
      <polygon
         points="221,146 218,146 218,149 219,149 219,148 220,148 220,147 221,147 "
         id="polygon2893"
         style="fill:#367e5d" />
      <rect
         x="213"
         y="146"
         width="1"
         height="1"
         id="rect2895"
         style="fill:#32595c" />
      <polygon
         points="219,145 218,145 218,146 221,146 221,145 222,145 222,144 219,144 "
         id="polygon2897"
         style="fill:#659756" />
      <polygon
         points="214,147 216,147 216,146 218,146 218,145 217,145 217,144 216,144 216,145 215,145 215,146 214,146 "
         id="polygon2899"
         style="fill:#367e5d" />
      <polygon
         points="213,145 212,145 212,146 215,146 215,145 216,145 216,144 213,144 "
         id="polygon2901"
         style="fill:#659756" />
      <rect
         x="223"
         y="144"
         width="1"
         height="1"
         id="rect2903"
         style="fill:#659756" />
      <polygon
         points="223,145 223,144 222,144 222,145 221,145 221,146 224,146 224,145 "
         id="polygon2905"
         style="fill:#367e5d" />
      <rect
         x="218"
         y="144"
         width="1"
         height="1"
         id="rect2907"
         style="fill:#367e5d" />
      <rect
         x="217"
         y="144"
         width="1"
         height="1"
         id="rect2909"
         style="fill:#659756" />
      <rect
         x="212"
         y="144"
         width="1"
         height="1"
         id="rect2911"
         style="fill:#367e5d" />
      <rect
         x="210"
         y="144"
         width="2"
         height="1"
         id="rect2913"
         style="fill:#659756" />
    </g>
  </g>
</svg>
