<?xml version="1.0" encoding="UTF-8" standalone="no"?>
<!-- Created with Inkscape (http://www.inkscape.org/) -->

<svg
   xmlns:dc="http://purl.org/dc/elements/1.1/"
   xmlns:cc="http://creativecommons.org/ns#"
   xmlns:rdf="http://www.w3.org/1999/02/22-rdf-syntax-ns#"
   xmlns:svg="http://www.w3.org/2000/svg"
   xmlns="http://www.w3.org/2000/svg"
   xmlns:sodipodi="http://sodipodi.sourceforge.net/DTD/sodipodi-0.dtd"
   xmlns:inkscape="http://www.inkscape.org/namespaces/inkscape"
   width="16"
   height="16"
   viewBox="0 0 4.2333332 4.2333332"
   version="1.1"
   id="svg9293"
   inkscape:version="0.92.2 (5c3e80d, 2017-08-06)"
   sodipodi:docname="grass.svg">
  <defs
     id="defs9287" />
  <sodipodi:namedview
     id="base"
     pagecolor="#ffffff"
     bordercolor="#666666"
     borderopacity="1.0"
     inkscape:pageopacity="0.0"
     inkscape:pageshadow="2"
     inkscape:zoom="3.959798"
     inkscape:cx="3.4020308"
     inkscape:cy="45.696338"
     inkscape:document-units="mm"
     inkscape:current-layer="layer1"
     showgrid="false"
     inkscape:window-width="1920"
     inkscape:window-height="1013"
     inkscape:window-x="-9"
     inkscape:window-y="-9"
     inkscape:window-maximized="1"
     units="px" />
  <metadata
     id="metadata9290">
    <rdf:RDF>
      <cc:Work
         rdf:about="">
        <dc:format>image/svg+xml</dc:format>
        <dc:type
           rdf:resource="http://purl.org/dc/dcmitype/StillImage" />
        <dc:title></dc:title>
      </cc:Work>
    </rdf:RDF>
  </metadata>
  <g
     inkscape:label="Layer 1"
     inkscape:groupmode="layer"
     id="layer1"
     transform="translate(0,-292.76667)">
    <g
       style="overflow:visible"
       id="g1063"
       transform="matrix(0.26458333,0,0,0.26458333,-4.2333333,250.43332)">
      <rect
         x="29"
         y="175"
         width="1"
         height="1"
         id="rect933"
         style="fill:#3b2632" />
      <rect
         x="22"
         y="175"
         width="1"
         height="1"
         id="rect935"
         style="fill:#3b2632" />
      <rect
         x="18"
         y="175"
         width="1"
         height="1"
         id="rect937"
         style="fill:#3b2632" />
      <rect
         x="16"
         y="175"
         width="2"
         height="1"
         id="rect939"
         style="fill:#231e2b" />
      <polygon
         points="20,174 19,174 19,172 21,172 21,171 20,171 20,170 18,170 18,172 17,172 17,171 16,171 16,174 17,174 17,173 18,173 18,175 19,175 19,176 22,176 22,175 23,175 23,176 29,176 29,175 30,175 30,176 32,176 32,174 30,174 30,172 29,172 29,174 28,174 28,175 26,175 26,174 27,174 27,172 26,172 26,173 25,173 25,174 24,174 24,173 23,173 23,172 26,172 26,171 25,171 25,170 24,170 24,171 22,171 22,172 21,172 21,173 22,173 22,174 21,174 21,175 20,175 "
         id="polygon941"
         style="fill:#231e2b" />
      <rect
         x="26"
         y="174"
         width="1"
         height="1"
         id="rect943"
         style="fill:#523230" />
      <rect
         x="17"
         y="174"
         width="1"
         height="1"
         id="rect945"
         style="fill:#3b2632" />
      <rect
         x="16"
         y="174"
         width="1"
         height="1"
         id="rect947"
         style="fill:#523230" />
      <rect
         x="21"
         y="173"
         width="1"
         height="1"
         id="rect949"
         style="fill:#523230" />
      <rect
         x="17"
         y="173"
         width="1"
         height="1"
         id="rect951"
         style="fill:#523230" />
      <rect
         x="31"
         y="172"
         width="1"
         height="1"
         id="rect953"
         style="fill:#523230" />
      <polygon
         points="32,174 32,173 31,173 31,172 30,172 30,174 "
         id="polygon955"
         style="fill:#3b2632" />
      <polygon
         points="27,173 27,175 28,175 28,174 29,174 29,172 28,172 28,173 "
         id="polygon957"
         style="fill:#3b2632" />
      <rect
         x="27"
         y="172"
         width="1"
         height="1"
         id="rect959"
         style="fill:#523230" />
      <polygon
         points="25,173 26,173 26,172 24,172 24,174 25,174 "
         id="polygon961"
         style="fill:#3b2632" />
      <rect
         x="23"
         y="172"
         width="1"
         height="1"
         id="rect963"
         style="fill:#523230" />
      <rect
         x="20"
         y="172"
         width="1"
         height="1"
         id="rect965"
         style="fill:#523230" />
      <polygon
         points="19,172 19,174 20,174 20,175 21,175 21,173 20,173 20,172 "
         id="polygon967"
         style="fill:#3b2632" />
      <polygon
         points="28,170 27,170 27,172 29,172 29,171 28,171 "
         id="polygon969"
         style="fill:#231e2b" />
      <polygon
         points="16,169 16,171 17,171 17,172 18,172 18,170 20,170 20,171 21,171 21,172 22,172 22,171 24,171 24,170 25,170 25,169 24,169 24,167 25,167 25,165 24,165 24,166 22,166 22,167 23,167 23,170 22,170 22,169 21,169 21,168 19,168 19,169 18,169 18,168 17,168 17,169 "
         id="polygon971"
         style="fill:#30394a" />
      <polygon
         points="32,172 32,170 31,170 31,171 30,171 30,172 "
         id="polygon973"
         style="fill:#231e2b" />
      <polygon
         points="18,168 18,166 17,166 17,164 16,164 16,169 17,169 17,168 "
         id="polygon975"
         style="fill:#30595c" />
      <polygon
         points="28,166 28,169 27,169 27,168 26,168 26,170 25,170 25,171 26,171 26,172 27,172 27,170 28,170 28,171 29,171 29,172 30,172 30,171 31,171 31,170 32,170 32,167 31,167 31,168 30,168 30,169 29,169 29,166 "
         id="polygon977"
         style="fill:#30394a" />
      <polygon
         points="30,168 31,168 31,167 29,167 29,169 30,169 "
         id="polygon979"
         style="fill:#367e5d" />
      <rect
         x="25"
         y="167"
         width="1"
         height="1"
         id="rect981"
         style="fill:#659756" />
      <polygon
         points="24,167 24,169 25,169 25,170 26,170 26,168 25,168 25,167 "
         id="polygon983"
         style="fill:#367e5d" />
      <rect
         x="31"
         y="166"
         width="1"
         height="1"
         id="rect985"
         style="fill:#367e5d" />
      <rect
         x="29"
         y="166"
         width="2"
         height="1"
         id="rect987"
         style="fill:#659756" />
      <polygon
         points="26,167 26,168 27,168 27,169 28,169 28,167 27,167 27,165 25,165 25,167 "
         id="polygon989"
         style="fill:#30595c" />
      <polygon
         points="22,167 22,166 21,166 21,167 20,167 20,168 21,168 21,169 22,169 22,170 23,170 23,167 "
         id="polygon991"
         style="fill:#30595c" />
      <polygon
         points="19,168 20,168 20,167 21,167 21,164 20,164 20,165 19,165 19,167 18,167 18,169 19,169 "
         id="polygon993"
         style="fill:#367e5d" />
      <rect
         x="18"
         y="166"
         width="1"
         height="1"
         id="rect995"
         style="fill:#659756" />
      <rect
         x="31"
         y="165"
         width="1"
         height="1"
         id="rect997"
         style="fill:#659756" />
      <rect
         x="30"
         y="165"
         width="1"
         height="1"
         id="rect999"
         style="fill:#367e5d" />
      <rect
         x="23"
         y="165"
         width="1"
         height="1"
         id="rect1001"
         style="fill:#367e5d" />
      <rect
         x="21"
         y="165"
         width="1"
         height="1"
         id="rect1003"
         style="fill:#30394a" />
      <polygon
         points="18,164 18,166 19,166 19,165 20,165 20,164 "
         id="polygon1005"
         style="fill:#30595c" />
      <rect
         x="17"
         y="165"
         width="1"
         height="1"
         id="rect1007"
         style="fill:#30394a" />
      <rect
         x="29"
         y="164"
         width="1"
         height="2"
         id="rect1009"
         style="fill:#30595c" />
      <polygon
         points="28,167 28,166 29,166 29,164 27,164 27,167 "
         id="polygon1011"
         style="fill:#659756" />
      <rect
         x="25"
         y="163"
         width="1"
         height="2"
         id="rect1013"
         style="fill:#30394a" />
      <rect
         x="24"
         y="164"
         width="1"
         height="1"
         id="rect1015"
         style="fill:#367e5d" />
      <rect
         x="22"
         y="164"
         width="1"
         height="2"
         id="rect1017"
         style="fill:#30595c" />
      <polygon
         points="19,164 19,162 17,162 17,163 16,163 16,164 17,164 17,165 18,165 18,164 "
         id="polygon1019"
         style="fill:#659756" />
      <polygon
         points="32,165 32,163 31,163 31,164 30,164 30,165 "
         id="polygon1021"
         style="fill:#30394a" />
      <rect
         x="30"
         y="163"
         width="1"
         height="1"
         id="rect1023"
         style="fill:#367e5d" />
      <polygon
         points="31,163 31,162 29,162 29,164 30,164 30,163 "
         id="polygon1025"
         style="fill:#659756" />
      <rect
         x="28"
         y="163"
         width="1"
         height="1"
         id="rect1027"
         style="fill:#30595c" />
      <polygon
         points="26,162 24,162 24,163 23,163 23,165 24,165 24,164 25,164 25,163 26,163 "
         id="polygon1029"
         style="fill:#659756" />
      <rect
         x="22"
         y="163"
         width="1"
         height="1"
         id="rect1031"
         style="fill:#30394a" />
      <polygon
         points="21,165 22,165 22,163 20,163 20,164 21,164 "
         id="polygon1033"
         style="fill:#659756" />
      <polygon
         points="20,162 20,161 17,161 17,162 19,162 19,164 20,164 20,163 21,163 21,162 "
         id="polygon1035"
         style="fill:#367e5d" />
      <rect
         x="31"
         y="162"
         width="1"
         height="1"
         id="rect1037"
         style="fill:#30595c" />
      <polygon
         points="26,165 27,165 27,164 28,164 28,163 29,163 29,162 26,162 "
         id="polygon1039"
         style="fill:#367e5d" />
      <rect
         x="21"
         y="162"
         width="1"
         height="1"
         id="rect1041"
         style="fill:#30595c" />
      <rect
         x="16"
         y="162"
         width="1"
         height="1"
         id="rect1043"
         style="fill:#30595c" />
      <polygon
         points="26,162 29,162 29,161 30,161 30,160 27,160 27,161 26,161 "
         id="polygon1045"
         style="fill:#659756" />
      <polygon
         points="25,160 24,160 24,161 23,161 23,162 22,162 22,163 24,163 24,162 26,162 26,161 25,161 "
         id="polygon1047"
         style="fill:#367e5d" />
      <polygon
         points="20,162 23,162 23,161 24,161 24,160 21,160 21,161 20,161 "
         id="polygon1049"
         style="fill:#659756" />
      <polygon
         points="16,160 16,162 17,162 17,161 20,161 20,160 "
         id="polygon1051"
         style="fill:#659756" />
      <rect
         x="31"
         y="160"
         width="1"
         height="1"
         id="rect1053"
         style="fill:#659756" />
      <polygon
         points="30,160 30,161 29,161 29,162 32,162 32,161 31,161 31,160 "
         id="polygon1055"
         style="fill:#367e5d" />
      <rect
         x="26"
         y="160"
         width="1"
         height="1"
         id="rect1057"
         style="fill:#367e5d" />
      <rect
         x="25"
         y="160"
         width="1"
         height="1"
         id="rect1059"
         style="fill:#659756" />
      <rect
         x="20"
         y="160"
         width="1"
         height="1"
         id="rect1061"
         style="fill:#367e5d" />
    </g>
  </g>
</svg>
