<?xml version="1.0" standalone="no"?>
<!DOCTYPE svg PUBLIC "-//W3C//DTD SVG 20010904//EN"
 "http://www.w3.org/TR/2001/REC-SVG-20010904/DTD/svg10.dtd">
<svg version="1.0" xmlns="http://www.w3.org/2000/svg"
 width="1280.000000pt" height="1280.000000pt" viewBox="0 0 1280.000000 1280.000000"
 preserveAspectRatio="xMidYMid meet">
<g transform="translate(0.000000,1280.000000) scale(0.100000,-0.100000)"
fill="#000000" stroke="none">
<path d="M6790 12340 c-228 -253 -418 -458 -422 -457 -4 1 -195 205 -424 452
-229 248 -417 451 -419 453 -2 2 -130 -245 -285 -547 -155 -303 -286 -551
-291 -551 -6 0 -242 146 -526 325 -284 179 -519 322 -523 318 -4 -4 -12 -30
-17 -58 -6 -27 -64 -295 -128 -595 -65 -300 -118 -546 -120 -548 -4 -4 17 -10
-636 192 -295 91 -541 166 -545 166 -5 0 5 -278 22 -617 17 -340 30 -619 29
-621 -2 -2 -110 1 -241 7 -132 6 -365 15 -519 21 -154 5 -327 12 -384 15 -82
5 -102 3 -99 -7 31 -81 379 -1171 375 -1174 -4 -5 -174 -44 -972 -224 -126
-29 -231 -54 -233 -55 -2 -1 149 -237 334 -524 185 -287 335 -523 333 -525 -2
-2 -251 -133 -552 -291 -301 -159 -544 -292 -540 -296 4 -4 211 -190 458 -414
248 -223 450 -411 450 -415 0 -5 -202 -196 -448 -424 -247 -228 -447 -418
-446 -423 1 -4 246 -133 543 -285 297 -152 542 -281 544 -287 2 -5 -143 -243
-323 -527 -179 -285 -322 -521 -318 -524 4 -4 148 -37 318 -73 541 -116 880
-189 883 -192 4 -4 2 -9 -213 -704 -80 -260 -144 -476 -140 -479 5 -6 1126 44
1198 53 31 4 37 2 37 -12 0 -10 -11 -290 -24 -623 -14 -333 -23 -606 -22 -607
1 -2 76 22 167 52 90 29 292 95 449 145 157 51 347 112 423 137 76 25 141 43
143 40 3 -2 66 -274 141 -603 75 -330 137 -600 138 -602 2 -2 237 149 524 334
287 185 523 335 525 333 2 -2 133 -250 292 -552 226 -430 291 -545 300 -535 6
7 193 213 414 458 221 245 406 445 411 445 5 0 167 -171 360 -380 194 -209
382 -413 420 -453 l67 -72 282 551 c222 432 286 550 299 546 9 -2 245 -149
525 -326 281 -177 513 -318 517 -314 3 5 22 85 42 178 87 410 220 1020 222
1023 4 4 1 5 687 -207 267 -83 490 -151 495 -151 4 0 -6 278 -23 618 -17 339
-30 618 -29 620 1 1 281 -9 621 -22 340 -13 620 -23 621 -22 1 1 -20 69 -47
151 -169 517 -330 1028 -326 1032 4 4 250 61 951 219 138 31 251 58 253 59 2
2 -148 238 -333 525 -186 286 -336 523 -334 524 2 2 250 133 552 292 431 227
545 290 535 300 -7 6 -213 193 -458 414 -245 221 -445 406 -445 411 0 5 201
194 446 421 245 227 447 417 448 422 1 5 -242 134 -541 287 -417 214 -543 283
-542 296 1 10 146 247 323 527 177 280 318 513 314 517 -7 6 -280 66 -1033
226 -91 19 -167 37 -168 38 -4 4 21 86 232 767 69 223 126 409 126 412 0 10
-153 5 -700 -23 -294 -15 -536 -27 -538 -26 -1 1 9 280 22 621 14 340 23 620
22 621 -1 2 -63 -17 -137 -42 -388 -128 -1042 -335 -1046 -332 -2 3 -65 274
-140 603 -75 330 -137 600 -138 602 -2 2 -238 -148 -525 -333 -286 -186 -522
-336 -524 -334 -2 2 -124 234 -271 514 -147 281 -278 527 -289 547 l-22 37
-414 -459z"/>
</g>
</svg>
