<?xml version="1.0" encoding="UTF-8" standalone="no"?>
<!-- Created with Inkscape (http://www.inkscape.org/) -->

<svg
   xmlns:dc="http://purl.org/dc/elements/1.1/"
   xmlns:cc="http://creativecommons.org/ns#"
   xmlns:rdf="http://www.w3.org/1999/02/22-rdf-syntax-ns#"
   xmlns:svg="http://www.w3.org/2000/svg"
   xmlns="http://www.w3.org/2000/svg"
   xmlns:sodipodi="http://sodipodi.sourceforge.net/DTD/sodipodi-0.dtd"
   xmlns:inkscape="http://www.inkscape.org/namespaces/inkscape"
   width="22"
   height="12"
   viewBox="0 0 5.8208334 3.1749999"
   version="1.1"
   id="svg533"
   inkscape:version="0.92.2 (5c3e80d, 2017-08-06)"
   sodipodi:docname="cloud-1.svg">
  <defs
     id="defs527" />
  <sodipodi:namedview
     id="base"
     pagecolor="#ffffff"
     bordercolor="#666666"
     borderopacity="1.0"
     inkscape:pageopacity="0.0"
     inkscape:pageshadow="2"
     inkscape:zoom="5.6"
     inkscape:cx="46.141633"
     inkscape:cy="28.707173"
     inkscape:document-units="mm"
     inkscape:current-layer="layer1"
     showgrid="false"
     units="px"
     inkscape:pagecheckerboard="true"
     inkscape:window-width="1920"
     inkscape:window-height="1013"
     inkscape:window-x="-9"
     inkscape:window-y="-9"
     inkscape:window-maximized="1" />
  <metadata
     id="metadata530">
    <rdf:RDF>
      <cc:Work
         rdf:about="">
        <dc:format>image/svg+xml</dc:format>
        <dc:type
           rdf:resource="http://purl.org/dc/dcmitype/StillImage" />
        <dc:title></dc:title>
      </cc:Work>
    </rdf:RDF>
  </metadata>
  <g
     inkscape:label="Layer 1"
     inkscape:groupmode="layer"
     id="layer1"
     transform="translate(0,-293.825)">
    <g
       style="overflow:visible"
       transform="matrix(0.26458333,0,0,0.26458333,-5.2916666,286.94583)"
       id="g4061">
      <rect
         style="fill:#dde4f0"
         id="rect3987"
         height="1"
         width="1"
         y="36"
         x="41" />
      <polygon
         style="fill:#dde4f0"
         id="polygon3989"
         points="41,37 40,37 40,36 39,36 39,37 32,37 32,36 31,36 31,37 21,37 21,38 41,38 " />
      <rect
         style="fill:#dde4f0"
         id="rect3991"
         height="1"
         width="1"
         y="36"
         x="20" />
      <rect
         style="fill:#dde4f0"
         id="rect3993"
         height="1"
         width="1"
         y="35"
         x="38" />
      <rect
         style="fill:#dde4f0"
         id="rect3995"
         height="1"
         width="1"
         y="34"
         x="37" />
      <rect
         style="fill:#dde4f0"
         id="rect3997"
         height="1"
         width="1"
         y="34"
         x="32" />
      <rect
         style="fill:#dde4f0"
         id="rect3999"
         height="2"
         width="1"
         y="34"
         x="23" />
      <rect
         style="fill:#dde4f0"
         id="rect4001"
         height="1"
         width="1"
         y="33"
         x="33" />
      <rect
         style="fill:#dde4f0"
         id="rect4003"
         height="1"
         width="1"
         y="33"
         x="30" />
      <rect
         style="fill:#dde4f0"
         id="rect4005"
         height="1"
         width="1"
         y="33"
         x="24" />
      <rect
         style="fill:#dde4f0"
         id="rect4007"
         height="1"
         width="1"
         y="32"
         x="29" />
      <rect
         style="fill:#dde4f0"
         id="rect4009"
         height="1"
         width="1"
         y="32"
         x="25" />
      <rect
         style="fill:#dde4f0"
         id="rect4011"
         height="1"
         width="2"
         y="31"
         x="27" />
      <rect
         style="fill:#dde4f0"
         id="rect4013"
         height="1"
         width="1"
         y="30"
         x="34" />
      <rect
         style="fill:#dde4f0"
         id="rect4015"
         height="1"
         width="1"
         y="30"
         x="30" />
      <rect
         style="fill:#dde4f0"
         id="rect4017"
         height="1"
         width="3"
         y="29"
         x="31" />
      <rect
         style="fill:#e1ebf7"
         id="rect4019"
         height="1"
         width="1"
         y="36"
         x="40" />
      <rect
         style="fill:#e1ebf7"
         id="rect4021"
         height="1"
         width="4"
         y="36"
         x="34" />
      <rect
         style="fill:#e1ebf7"
         id="rect4023"
         height="1"
         width="5"
         y="36"
         x="24" />
      <rect
         style="fill:#e1ebf7"
         id="rect4025"
         height="1"
         width="1"
         y="35"
         x="39" />
      <polygon
         style="fill:#e1ebf7"
         id="polygon4027"
         points="23,35 22,35 22,36 21,36 21,37 23,37 " />
      <polygon
         style="fill:#e1ebf7"
         id="polygon4029"
         points="33,34 33,33 31,33 31,36 32,36 32,34 " />
      <rect
         style="fill:#e1ebf7"
         id="rect4031"
         height="1"
         width="1"
         y="31"
         x="29" />
      <rect
         style="fill:#edf3f7"
         id="rect4033"
         height="1"
         width="2"
         y="36"
         x="32" />
      <rect
         style="fill:#edf3f7"
         id="rect4035"
         height="1"
         width="1"
         y="36"
         x="23" />
      <polygon
         style="fill:#edf3f7"
         id="polygon4037"
         points="42,36 42,35 41,35 41,34 40,34 40,33 39,33 39,32 37,32 37,33 36,33 36,34 38,34 38,35 40,35 40,36 " />
      <rect
         style="fill:#edf3f7"
         id="rect4039"
         height="1"
         width="2"
         y="35"
         x="34" />
      <polygon
         style="fill:#edf3f7"
         id="polygon4041"
         points="31,36 30,36 30,35 29,35 29,34 26,34 26,35 24,35 24,36 29,36 29,37 31,37 " />
      <rect
         style="fill:#edf3f7"
         id="rect4043"
         height="1"
         width="1"
         y="35"
         x="21" />
      <polygon
         style="fill:#edf3f7"
         id="polygon4045"
         points="23,33 22,33 22,35 23,35 23,34 24,34 24,33 25,33 25,32 26,32 26,31 24,31 24,32 23,32 " />
      <rect
         style="fill:#edf3f7"
         id="rect4047"
         height="1"
         width="1"
         y="33"
         x="34" />
      <rect
         style="fill:#edf3f7"
         id="rect4049"
         height="1"
         width="4"
         y="32"
         x="30" />
      <polygon
         style="fill:#edf3f7"
         id="polygon4051"
         points="28,30 28,31 30,31 30,30 31,30 31,29 33,29 33,28 30,28 30,29 29,29 29,30 " />
      <rect
         style="fill:#fafdff"
         id="rect4053"
         height="1"
         width="1"
         y="36"
         x="38" />
      <rect
         style="fill:#fafdff"
         id="rect4055"
         height="1"
         width="1"
         y="34"
         x="41" />
      <polygon
         style="fill:#fafdff"
         id="polygon4057"
         points="22,33 21,33 21,34 20,34 20,36 21,36 21,35 22,35 " />
      <polygon
         style="fill:#fafdff"
         id="polygon4059"
         points="40,31 39,31 39,30 37,30 37,31 36,31 36,28 35,28 35,27 34,27 34,26 29,26 29,27 28,27 28,29 27,29 27,30 26,30 26,29 23,29 23,30 22,30 22,33 23,33 23,32 24,32 24,31 26,31 26,33 25,33 25,34 24,34 24,35 26,35 26,34 29,34 29,35 30,35 30,36 31,36 31,34 30,34 30,33 29,33 29,32 27,32 27,31 28,31 28,30 29,30 29,29 30,29 30,28 33,28 33,29 34,29 34,30 35,30 35,31 34,31 34,30 31,30 31,31 30,31 30,32 34,32 34,33 35,33 35,34 33,34 33,35 32,35 32,36 34,36 34,35 36,35 36,36 38,36 38,35 37,35 37,34 36,34 36,33 37,33 37,32 39,32 39,33 40,33 40,34 41,34 41,32 40,32 " />
    </g>
  </g>
</svg>
