<?xml version="1.0" encoding="UTF-8" standalone="no"?>
<!-- Created with Inkscape (http://www.inkscape.org/) -->

<svg
   xmlns:dc="http://purl.org/dc/elements/1.1/"
   xmlns:cc="http://creativecommons.org/ns#"
   xmlns:rdf="http://www.w3.org/1999/02/22-rdf-syntax-ns#"
   xmlns:svg="http://www.w3.org/2000/svg"
   xmlns="http://www.w3.org/2000/svg"
   xmlns:sodipodi="http://sodipodi.sourceforge.net/DTD/sodipodi-0.dtd"
   xmlns:inkscape="http://www.inkscape.org/namespaces/inkscape"
   width="18"
   height="16"
   viewBox="0 0 4.7625001 4.2333332"
   version="1.1"
   id="svg10136"
   inkscape:version="0.92.2 (5c3e80d, 2017-08-06)"
   sodipodi:docname="step.svg">
  <defs
     id="defs10130" />
  <sodipodi:namedview
     id="base"
     pagecolor="#ffffff"
     bordercolor="#666666"
     borderopacity="1.0"
     inkscape:pageopacity="0.0"
     inkscape:pageshadow="2"
     inkscape:zoom="31.678384"
     inkscape:cx="10.4576"
     inkscape:cy="9.6027978"
     inkscape:document-units="mm"
     inkscape:current-layer="svg10136"
     showgrid="true"
     units="px"
     inkscape:window-width="1920"
     inkscape:window-height="1013"
     inkscape:window-x="-9"
     inkscape:window-y="-9"
     inkscape:window-maximized="1">
    <inkscape:grid
       type="xygrid"
       id="grid10731"
       empspacing="4" />
  </sodipodi:namedview>
  <metadata
     id="metadata10133">
    <rdf:RDF>
      <cc:Work
         rdf:about="">
        <dc:format>image/svg+xml</dc:format>
        <dc:type
           rdf:resource="http://purl.org/dc/dcmitype/StillImage" />
        <dc:title></dc:title>
      </cc:Work>
    </rdf:RDF>
  </metadata>
  <g
     inkscape:label="Layer 1"
     inkscape:groupmode="layer"
     id="layer1"
     transform="translate(0,-11.766667)" />
  <polygon
     id="polygon1857-06"
     points="1,0 0,0 0,3 1,3 1,2 2,2 2,1 1,1 "
     style="fill:#231e2b"
     transform="matrix(0.26458333,0,0,0.26458333,0,2.9104167)" />
  <rect
     id="rect1863-7"
     height="0.26458332"
     width="0.26458332"
     y="3.7041671"
     x="0.26458344"
     style="fill:#231e2b;stroke-width:0.26458332" />
  <rect
     id="rect1871-8"
     height="0.26458332"
     width="0.26458332"
     y="3.4395838"
     x="0.26458344"
     style="fill:#3b2130;stroke-width:0.26458332" />
  <rect
     id="rect1891-3"
     height="0.26458332"
     width="0.26458332"
     y="2.6458337"
     x="1.2e-007"
     style="fill:#32595c;stroke-width:0.26458332" />
  <polygon
     id="polygon1893-19"
     points="0,0 0,4 1,4 1,0 "
     style="fill:#30394a"
     transform="matrix(0.26458333,0,0,0.26458333,0.26458333,2.1166667)" />
  <rect
     id="rect1895-25"
     height="0.52916664"
     width="0.26458332"
     y="2.1166673"
     x="1.2e-007"
     style="fill:#367e5d;stroke-width:0.26458332" />
  <rect
     id="rect1905-3"
     height="0.52916664"
     width="0.26458332"
     y="1.5875005"
     x="0.26458344"
     style="fill:#32595c;stroke-width:0.26458332" />
  <polygon
     id="polygon1907-0"
     points="64,152 65,152 65,149 66,149 66,145 65,145 65,146 64,146 "
     style="fill:#659756"
     transform="matrix(0.26458333,0,0,0.26458333,-16.933333,-38.099999)" />
  <rect
     id="rect1931-4"
     height="0.26458332"
     width="0.26458332"
     y="1.3229172"
     x="0.26458344"
     style="fill:#30394a;stroke-width:0.26458332" />
  <rect
     style="fill:#3b2130;stroke-width:0.26458332"
     id="rect2249-5"
     height="0.26458332"
     width="0.26458332"
     y="3.9687505"
     x="2.1166666" />
  <rect
     style="fill:#3b2130;stroke-width:0.26458332"
     id="rect2251-8"
     height="0.26458332"
     width="0.26458332"
     y="3.9687505"
     x="1.0583334" />
  <rect
     style="fill:#231e2b;stroke-width:0.26458332"
     id="rect2253-47"
     height="0.26458332"
     width="0.52916664"
     y="3.9687505"
     x="0.5291667" />
  <polygon
     style="fill:#231e2b"
     id="polygon2255-0"
     points="97,158 97,157 98,157 98,159 99,159 99,160 102,160 102,159 103,159 103,160 110,160 110,159 111,159 111,158 110,158 110,156 109,156 109,158 108,158 108,159 106,159 106,158 107,158 107,156 106,156 106,157 105,157 105,158 104,158 104,157 103,157 103,156 106,156 106,155 105,155 105,154 104,154 104,155 102,155 102,156 101,156 101,157 102,157 102,158 101,158 101,159 100,159 100,158 99,158 99,156 101,156 101,155 100,155 100,154 98,154 98,156 97,156 97,155 96,155 96,158 "
     transform="matrix(0.26458333,0,0,0.26458333,-24.870833,-38.099999)" />
  <rect
     style="fill:#522b29;stroke-width:0.26458332"
     id="rect2257-08"
     height="0.26458332"
     width="0.26458332"
     y="3.7041671"
     x="3.175" />
  <rect
     style="fill:#3b2130;stroke-width:0.26458332"
     id="rect2259-64"
     height="0.26458332"
     width="0.26458332"
     y="3.7041671"
     x="0.79374999" />
  <rect
     style="fill:#522b29;stroke-width:0.26458332"
     id="rect2261-03"
     height="0.26458332"
     width="0.26458332"
     y="3.7041671"
     x="0.5291667" />
  <rect
     style="fill:#3b2130;stroke-width:0.26458332"
     id="rect2263-1"
     height="0.26458332"
     width="0.26458332"
     y="3.4395838"
     x="4.2333331" />
  <rect
     style="fill:#522b29;stroke-width:0.26458332"
     id="rect2265-36"
     height="0.26458332"
     width="0.26458332"
     y="3.4395838"
     x="1.8520833" />
  <rect
     style="fill:#522b29;stroke-width:0.26458332"
     id="rect2267-05"
     height="0.26458332"
     width="0.26458332"
     y="3.4395838"
     x="0.79374999" />
  <rect
     style="fill:#522b29;stroke-width:0.26458332"
     id="rect2269-32"
     height="0.26458332"
     width="0.26458332"
     y="3.1750004"
     x="4.2333331" />
  <polygon
     style="fill:#3b2130"
     id="polygon2271-45"
     points="108,157 107,157 107,159 108,159 108,158 109,158 109,156 108,156 "
     transform="matrix(0.26458333,0,0,0.26458333,-24.870833,-38.099999)" />
  <rect
     style="fill:#522b29;stroke-width:0.26458332"
     id="rect2273-18"
     height="0.26458332"
     width="0.26458332"
     y="3.1750004"
     x="3.4395833" />
  <polygon
     style="fill:#3b2130"
     id="polygon2275-2"
     points="104,156 104,158 105,158 105,157 106,157 106,156 "
     transform="matrix(0.26458333,0,0,0.26458333,-24.870833,-38.099999)" />
  <rect
     style="fill:#522b29;stroke-width:0.26458332"
     id="rect2277-3"
     height="0.26458332"
     width="0.26458332"
     y="3.1750004"
     x="2.3812499" />
  <rect
     style="fill:#522b29;stroke-width:0.26458332"
     id="rect2279-21"
     height="0.26458332"
     width="0.26458332"
     y="3.1750004"
     x="1.5875" />
  <polygon
     style="fill:#3b2130"
     id="polygon2281-84"
     points="100,156 99,156 99,158 100,158 100,159 101,159 101,157 100,157 "
     transform="matrix(0.26458333,0,0,0.26458333,-24.870833,-38.099999)" />
  <polygon
     style="fill:#231e2b"
     id="polygon2283-54"
     points="108,155 108,154 107,154 107,156 109,156 109,155 "
     transform="matrix(0.26458333,0,0,0.26458333,-24.870833,-38.099999)" />
  <polygon
     style="fill:#30394a"
     id="polygon2285-5"
     points="105,153 104,153 104,151 105,151 105,149 104,149 104,150 102,150 102,151 103,151 103,154 102,154 102,153 101,153 101,152 99,152 99,153 98,153 98,152 97,152 97,153 96,153 96,155 97,155 97,156 98,156 98,154 100,154 100,155 101,155 101,156 102,156 102,155 104,155 104,154 105,154 "
     transform="matrix(0.26458333,0,0,0.26458333,-24.870833,-38.099999)" />
  <polygon
     style="fill:#231e2b"
     id="polygon2287-61"
     points="111,155 110,155 110,156 111,156 111,158 112,158 112,154 111,154 "
     transform="matrix(0.26458333,0,0,0.26458333,-24.870833,-38.099999)" />
  <polygon
     style="fill:#367e5d"
     id="polygon2289-87"
     points="106,152 105,152 105,151 104,151 104,153 105,153 105,154 106,154 "
     transform="matrix(0.26458333,0,0,0.26458333,-24.870833,-38.099999)" />
  <rect
     style="fill:#32595c;stroke-width:0.26458332"
     id="rect2291-5"
     height="0.52916664"
     width="0.26458332"
     y="2.1166673"
     x="4.4979167" />
  <polygon
     style="fill:#30394a"
     id="polygon2293-9"
     points="110,153 109,153 109,150 108,150 108,153 107,153 107,152 106,152 106,154 105,154 105,155 106,155 106,156 107,156 107,154 108,154 108,155 109,155 109,156 110,156 110,155 111,155 111,152 110,152 "
     transform="matrix(0.26458333,0,0,0.26458333,-24.870833,-38.099999)" />
  <polygon
     style="fill:#32595c"
     id="polygon2295-6"
     points="97,152 98,152 98,150 97,150 97,148 96,148 96,153 97,153 "
     transform="matrix(0.26458333,0,0,0.26458333,-24.870833,-38.099999)" />
  <rect
     style="fill:#659756;stroke-width:0.26458332"
     id="rect2297-8"
     height="0.26458332"
     width="0.26458332"
     y="1.8520838"
     x="4.4979167" />
  <polygon
     style="fill:#367e5d"
     id="polygon2299-4"
     points="109,151 109,153 110,153 110,152 111,152 111,151 "
     transform="matrix(0.26458333,0,0,0.26458333,-24.870833,-38.099999)" />
  <polygon
     style="fill:#32595c"
     id="polygon2301-84"
     points="105,151 106,151 106,152 107,152 107,153 108,153 108,151 107,151 107,149 105,149 "
     transform="matrix(0.26458333,0,0,0.26458333,-24.870833,-38.099999)" />
  <rect
     style="fill:#659756;stroke-width:0.26458332"
     id="rect2303-26"
     height="0.26458332"
     width="0.26458332"
     y="1.8520838"
     x="2.9104166" />
  <rect
     style="fill:#367e5d;stroke-width:0.26458332"
     id="rect2305-68"
     height="0.26458332"
     width="0.26458332"
     y="1.5875005"
     x="4.4979167" />
  <rect
     style="fill:#659756;stroke-width:0.26458332"
     id="rect2307-2"
     height="0.26458332"
     width="0.52916664"
     y="1.5875005"
     x="3.96875" />
  <polygon
     style="fill:#32595c"
     id="polygon2309-9"
     points="101,151 100,151 100,152 101,152 101,153 102,153 102,154 103,154 103,151 102,151 102,150 101,150 "
     transform="matrix(0.26458333,0,0,0.26458333,-24.870833,-38.099999)" />
  <polygon
     style="fill:#367e5d"
     id="polygon2311-71"
     points="101,151 101,148 100,148 100,149 99,149 99,151 98,151 98,153 99,153 99,152 100,152 100,151 "
     transform="matrix(0.26458333,0,0,0.26458333,-24.870833,-38.099999)" />
  <rect
     style="fill:#659756;stroke-width:0.26458332"
     id="rect2313-54"
     height="0.26458332"
     width="0.26458332"
     y="1.5875005"
     x="1.0583334" />
  <rect
     style="fill:#367e5d;stroke-width:0.26458332"
     id="rect2315-14"
     height="0.26458332"
     width="0.26458332"
     y="1.3229172"
     x="4.2333331" />
  <rect
     style="fill:#32595c;stroke-width:0.26458332"
     id="rect2317-3"
     height="0.52916664"
     width="0.26458332"
     y="1.0583339"
     x="3.96875" />
  <rect
     style="fill:#367e5d;stroke-width:0.26458332"
     id="rect2319-3"
     height="0.26458332"
     width="0.26458332"
     y="1.3229172"
     x="2.3812499" />
  <rect
     style="fill:#30394a;stroke-width:0.26458332"
     id="rect2321-1"
     height="0.26458332"
     width="0.26458332"
     y="1.3229172"
     x="1.8520833" />
  <polygon
     style="fill:#32595c"
     id="polygon2323-2"
     points="99,149 100,149 100,148 98,148 98,150 99,150 "
     transform="matrix(0.26458333,0,0,0.26458333,-24.870833,-38.099999)" />
  <rect
     style="fill:#30394a;stroke-width:0.26458332"
     id="rect2325-49"
     height="0.26458332"
     width="0.26458332"
     y="1.3229172"
     x="0.79374999" />
  <rect
     style="fill:#30394a;stroke-width:0.26458332"
     id="rect2327-85"
     height="0.26458332"
     width="0.26458332"
     y="1.0583339"
     x="4.2333331" />
  <polygon
     style="fill:#659756"
     id="polygon2329-0"
     points="107,148 107,151 108,151 108,150 109,150 109,148 "
     transform="matrix(0.26458333,0,0,0.26458333,-24.870833,-38.099999)" />
  <rect
     style="fill:#30394a;stroke-width:0.26458332"
     id="rect2331-1"
     height="0.52916664"
     width="0.26458332"
     y="0.79375052"
     x="2.9104166" />
  <rect
     style="fill:#367e5d;stroke-width:0.26458332"
     id="rect2333-9"
     height="0.26458332"
     width="0.26458332"
     y="1.0583339"
     x="2.6458333" />
  <rect
     style="fill:#32595c;stroke-width:0.26458332"
     id="rect2335-3"
     height="0.52916664"
     width="0.26458332"
     y="1.0583339"
     x="2.1166666" />
  <polygon
     style="fill:#659756"
     id="polygon2337-8"
     points="96,148 97,148 97,149 98,149 98,148 99,148 99,146 97,146 97,147 96,147 "
     transform="matrix(0.26458333,0,0,0.26458333,-24.870833,-38.099999)" />
  <rect
     style="fill:#367e5d;stroke-width:0.26458332"
     id="rect2339-53"
     height="0.26458332"
     width="0.26458332"
     y="0.79375052"
     x="4.2333331" />
  <rect
     style="fill:#32595c;stroke-width:0.26458332"
     id="rect2341-055"
     height="0.26458332"
     width="0.26458332"
     y="0.79375052"
     x="3.7041667" />
  <polygon
     style="fill:#659756"
     id="polygon2345-49"
     points="104,149 104,148 105,148 105,147 106,147 106,146 104,146 104,147 103,147 103,149 "
     transform="matrix(0.26458333,0,0,0.26458333,-24.870833,-38.099999)" />
  <rect
     style="fill:#30394a;stroke-width:0.26458332"
     id="rect2347-0"
     height="0.26458332"
     width="0.26458332"
     y="0.79375052"
     x="2.1166666" />
  <polygon
     style="fill:#659756"
     id="polygon2349-9"
     points="100,147 100,148 101,148 101,149 102,149 102,147 "
     transform="matrix(0.26458333,0,0,0.26458333,-24.870833,-38.099999)" />
  <polygon
     style="fill:#367e5d"
     id="polygon2351-1"
     points="99,148 100,148 100,147 101,147 101,146 100,146 100,145 97,145 97,146 99,146 "
     transform="matrix(0.26458333,0,0,0.26458333,-24.870833,-38.099999)" />
  <polygon
     style="fill:#367e5d"
     id="polygon2353-6"
     points="106,146 106,149 107,149 107,148 108,148 108,147 109,147 109,146 "
     transform="matrix(0.26458333,0,0,0.26458333,-24.870833,-38.099999)" />
  <rect
     style="fill:#32595c;stroke-width:0.26458332"
     id="rect2355-2"
     height="0.26458332"
     width="0.26458332"
     y="0.52916718"
     x="1.8520833" />
  <rect
     style="fill:#32595c;stroke-width:0.26458332"
     id="rect2357-22"
     height="0.26458332"
     width="0.26458332"
     y="0.52916718"
     x="0.5291667" />
  <polygon
     style="fill:#659756"
     id="polygon2359-7"
     points="111,145 110,145 110,146 109,146 109,148 110,148 110,147 111,147 111,150 112,150 112,146 111,146 "
     transform="matrix(0.26458333,0,0,0.26458333,-24.870833,-38.099999)" />
  <rect
     style="fill:#367e5d;stroke-width:0.26458332"
     id="rect2361-07"
     height="0.26458332"
     width="0.26458332"
     y="0.26458386"
     x="3.96875" />
  <polygon
     style="fill:#659756"
     id="polygon2365-76"
     points="106,145 106,146 109,146 109,145 110,145 110,144 107,144 107,145 "
     transform="matrix(0.26458333,0,0,0.26458333,-24.870833,-38.099999)" />
  <polygon
     style="fill:#367e5d"
     id="polygon2367-0"
     points="103,145 103,146 102,146 102,147 104,147 104,146 106,146 106,145 105,145 105,144 104,144 104,145 "
     transform="matrix(0.26458333,0,0,0.26458333,-24.870833,-38.099999)" />
  <polygon
     style="fill:#659756"
     id="polygon2369-5"
     points="100,145 100,146 103,146 103,145 104,145 104,144 101,144 101,145 "
     transform="matrix(0.26458333,0,0,0.26458333,-24.870833,-38.099999)" />
  <polygon
     style="fill:#659756"
     id="polygon2371-5"
     points="97,145 100,145 100,144 96,144 96,146 97,146 "
     transform="matrix(0.26458333,0,0,0.26458333,-24.870833,-38.099999)" />
  <rect
     style="fill:#367e5d;stroke-width:0.26458332"
     id="rect2373-2"
     height="0.26458332"
     width="0.26458332"
     y="5.2000001e-007"
     x="3.175" />
  <rect
     style="fill:#659756;stroke-width:0.26458332"
     id="rect2375-3"
     height="0.26458332"
     width="0.26458332"
     y="5.2000001e-007"
     x="2.9104166" />
  <rect
     style="fill:#367e5d;stroke-width:0.26458332"
     id="rect2379-0"
     height="0.26458332"
     width="0.26458332"
     y="5.2000001e-007"
     x="1.5875" />
</svg>
